<svg width="310" height="209" viewBox="0 0 310 209" fill="none" xmlns="http://www.w3.org/2000/svg">
<g clip-path="url(#clip0_741_160)">
<path d="M236.062 104.903L233.608 100.099L232.457 101.295L231.688 104.903H229.319L231.773 93.1675H234.142L233.093 98.1986L237.946 93.1675H241L235.426 98.6762L238.849 104.903H236.062ZM222.49 104.899L219.354 97.0152L217.916 104.899H215.875L217.989 93.2137H220.089L223.136 100.817L224.532 93.2137H226.573L224.458 104.899H222.49ZM208.431 104.864L210.772 93.1586H213.033L210.691 104.864H208.431ZM197.415 104.786L199.904 93.2726H202.307L200.294 102.628H205.05L204.591 104.786H197.415ZM163.054 105.134C161.662 105.134 160.584 104.768 159.818 104.038C159.053 103.307 158.67 102.311 158.67 101.048C158.67 100.756 158.696 100.493 158.747 100.26L160.075 93.2298H162.251L160.937 100.192C160.896 100.308 160.875 100.501 160.875 100.771C160.875 101.401 161.074 101.92 161.472 102.329C161.871 102.738 162.398 102.942 163.054 102.942C164.443 102.942 165.309 102.025 165.651 100.192L166.982 93.2298H169.172L167.829 100.243C167.487 101.963 166.925 103.208 166.144 103.98C165.363 104.749 164.333 105.134 163.054 105.134ZM191.602 104.973L191.347 102.971H187.06L186.056 104.973H183.525L189.594 93.1679H192.26L193.908 104.973H191.602ZM190.566 95.681L188.064 100.759H191.166L190.566 95.681ZM178.038 104.868L176.789 100.709H175.048L174.222 104.868H171.975L174.303 93.16H178.814C179.743 93.16 180.52 93.4732 181.142 94.0994C181.764 94.7257 182.076 95.5131 182.076 96.4616C182.076 97.5015 181.79 98.3964 181.219 99.146C180.65 99.8957 179.933 100.357 179.067 100.531L180.524 104.868H178.038ZM177.849 98.5152C178.441 98.5152 178.899 98.3461 179.225 98.0078C179.553 97.6673 179.717 97.233 179.717 96.705C179.717 96.3073 179.582 95.9828 179.312 95.7314C179.044 95.4799 178.735 95.3542 178.387 95.3542H176.124L175.49 98.5152H177.849ZM146.956 104.894L149.243 93.0771H156.584L156.147 95.2916H151.032L150.549 97.7899H155.558L155.12 100.004H150.115L149.601 102.679H154.716L154.297 104.894H146.956ZM139.977 104.859L136.897 96.9884L135.485 104.859H133.48L135.557 93.1932H137.62L140.612 100.784L141.982 93.1932H143.987L141.91 104.859H139.977Z" fill="white"/>
<path d="M69 118.947H117.881L117.507 116.289H75.6196L105.413 87.5715C109.498 83.4866 116.712 86.1319 117.904 92.6454C120.045 106.106 121.744 120.432 123.561 134.212C124.502 139.435 130.097 140.647 133.407 137.337L154.212 116.302H127.046L127.408 118.913H147.982L131.757 135.267C129.499 137.525 126.808 137.446 125.79 133.646L120.129 91.5148C118.828 83.9182 109.669 80.0892 103.626 85.6159L69 118.947Z" fill="white"/>
</g>
<defs>
<clipPath id="clip0_741_160">
<rect width="172" height="56.1801" fill="white" transform="translate(69 83)"/>
</clipPath>
</defs>
</svg>
