<svg width="310" height="209" viewBox="0 0 310 209" fill="none" xmlns="http://www.w3.org/2000/svg">
<path d="M125.297 115.178C131.09 115.178 134.245 112.96 134.245 109.078C134.245 105.809 131.932 103.705 127.094 102.979L123.824 102.444C121.396 102.023 120.248 101.392 120.248 99.805C120.248 98.3327 121.931 97.1664 124.991 97.1664H125.526C128.585 97.1664 130.574 98.4283 130.899 100.646H134.685C134.265 96.5355 130.899 93.916 125.22 93.916C119.216 93.916 116.596 96.8605 116.596 99.9197C116.596 103.61 118.604 105.178 123.327 105.923L126.597 106.459C129.542 106.994 130.708 107.835 130.708 109.193C130.708 110.78 129.236 111.927 125.66 111.927H125.124C121.644 111.927 119.445 110.665 119.331 108.027H115.43C115.506 112.768 119.311 115.178 125.297 115.178ZM141.416 114.872V107.396C141.301 104.872 143.309 102.654 145.948 102.558H146.369C148.682 102.558 149.638 104.145 149.638 106.554V114.872H153.119V105.923C153.119 102.444 150.901 99.8241 146.808 99.8241C144.705 99.7094 142.602 100.665 141.34 102.348V94.1455H137.859V114.891H141.416V114.872ZM160.786 97.9121V94.1263H157V97.9121H160.786ZM160.672 114.872V100.13H157.192V114.967H160.672V114.872ZM179.736 107.071C179.736 102.749 176.887 99.805 172.049 99.805C167.938 99.805 163.846 102.329 163.846 107.377C163.846 112.539 167.536 115.158 172.164 115.158C175.95 115.158 178.895 113.361 179.43 110.321H175.854C175.434 111.583 174.057 112.329 172.279 112.329H171.858C169.544 112.443 167.536 110.646 167.326 108.428H179.755V107.071H179.736ZM167.632 105.713C168.053 103.82 169.946 102.444 171.839 102.654H172.26C174.153 102.654 175.95 103.495 176.046 105.713H167.632ZM186.352 114.872V94.1263H182.891V114.872H186.352ZM197.519 115.178C199.623 115.292 201.631 114.432 203.103 112.864V114.872H206.583V94.1263H203.103V102.119C201.726 100.532 199.623 99.5947 197.519 99.805C193.102 99.805 189.737 102.444 189.737 107.491C189.622 112.233 192.987 115.178 197.519 115.178ZM197.73 112.348C194.995 112.348 193.102 110.665 193.102 107.51C193.102 104.356 194.995 102.673 197.73 102.673H198.15C200.674 102.463 202.893 104.356 202.988 106.879C202.988 107.09 202.988 107.3 202.988 107.51C203.199 110.034 201.191 112.252 198.667 112.348C198.456 112.348 198.246 112.348 198.036 112.348C198.055 112.348 197.73 112.348 197.73 112.348ZM238.784 114.872L229.204 94.1263H224.883L215.207 114.872H219.108L221.422 109.824H232.589L234.902 114.872H238.784ZM226.986 97.7018L231.097 106.535H222.894L226.986 97.7018ZM244.999 114.872V94.1263H241.308V114.872H244.999Z" fill="white"/>
<path d="M92.4717 92.7494L88.9915 92.0037L88.8768 88.8489L84.7656 88.2179V86H84.976C85.0907 86 85.3966 86 85.8173 86.1147H86.0277C87.8251 86.325 89.6034 86.7457 91.4009 87.1663H91.5156L91.7259 87.281L92.4717 92.7494Z" fill="white"/>
<path d="M89.5239 104.548V104.759L85.2023 104.434L85.5274 98.9653L80.0586 98.6403L80.594 94.8545H80.8043C83.7491 94.8545 86.6938 95.1795 89.543 95.6958H89.7533V96.2311C89.7342 98.9653 89.7342 101.699 89.5239 104.548Z" fill="white"/>
<path d="M85.6281 109.902L84.7867 117.263L81.0006 116.842L81.1153 113.152L76.5835 112.521L76.4688 108.831H76.6791C79.6238 109.366 82.473 109.787 85.4177 109.883H85.6281V109.902Z" fill="white"/>
<path d="M97.5321 106.019V106.229C97.3218 108.753 96.9967 111.277 96.3657 113.705V113.82L93.2106 114.145L94.052 109.938L89.7305 110.053L90.2659 105.847L97.5321 106.019Z" fill="white"/>
<path d="M76.0463 98.8501C75.6256 101.699 75.5108 104.644 75.5108 107.473V107.684L72.241 107.148V102.521L69.0859 102.311V102.196C69.0859 101.03 69.2007 99.8826 69.411 98.831L69.5257 98.7163L76.0463 98.6016V98.8501Z" fill="white"/>
<path d="M80.996 87.7031L79.7339 94.0127H79.5236C79.4089 94.0127 79.3133 94.0127 79.1985 94.0127H78.4528C78.0321 94.0127 77.6114 94.0127 77.1907 94.0127C76.9804 94.0127 76.7701 94.0127 76.5597 94.0127C76.445 94.0127 76.3494 94.0127 76.2347 94.0127H75.9096L76.7509 90.3226L72.9648 90.8579L73.9209 88.1238H74.0357C76.2538 87.7987 78.4528 87.7031 80.7665 87.7031H80.996Z" fill="white"/>
<path d="M99.8515 102.116V102.327L97.2127 101.906L97.0024 97.6996L93.4266 96.8583L93.1016 93.4932L99.1058 95.2905V95.4052C99.6412 97.5849 99.8515 99.8028 99.8515 102.116Z" fill="white"/>
<path d="M93.1921 117.491L91.5094 122.654L88.4499 122.768L89.1957 120.34H85.1992L85.6199 117.702H85.8302C88.2587 117.816 90.668 117.816 93.0965 117.491H93.1921Z" fill="white"/>
<path d="M70.4688 91.3719C69.8378 93.5898 69.3024 95.693 69.0921 97.7963V97.911L66.7783 98.1213V97.911C66.7783 97.1653 66.8931 96.324 67.1034 95.4827C67.2181 95.1577 67.2181 94.8518 67.3137 94.5267L65 94.9474L65.7457 92.0985L70.2776 91.0469L70.4688 91.3719Z" fill="white"/>
<path d="M100.459 93.0537L98.0303 92.0977L97.3993 89.4591L94.5502 88.4075V88.2928C94.3398 87.6618 94.3398 87.0308 94.3398 86.3999L94.4546 86.2852L99.1968 88.178L100.459 93.0537Z" fill="white"/>
</svg>
