<svg width="310" height="209" viewBox="0 0 310 209" fill="none" xmlns="http://www.w3.org/2000/svg">
<g clip-path="url(#clip0_741_336)">
<path d="M96.5561 116.094C96.11 116.503 95.9158 117.109 95.8675 117.702C95.6676 120.152 96.0197 122.873 95.8678 125.353C95.7582 125.947 95.2259 126.336 94.6369 126.385C91.9514 126.2 88.9551 126.622 86.3069 126.385C85.615 126.323 85.1366 125.845 85.0749 125.155C84.8361 122.488 85.2615 119.471 85.0749 116.767C85.1349 116.094 85.598 115.662 86.2489 115.544L94.1685 115.539C95.1652 115.352 95.8189 114.574 95.9325 113.576C95.8172 111.381 96.088 109.029 95.9361 106.854C95.8645 105.826 95.3015 105.037 94.2854 104.777C91.7558 104.599 89.0114 104.959 86.5071 104.763C85.7522 104.704 85.1469 104.338 85.0749 103.533L85.1072 94.9104C85.2458 94.387 85.6453 94.0222 86.1823 93.922C88.6962 93.7467 91.4863 94.1368 93.9672 93.915C95.1013 93.8137 95.8299 92.9981 95.9318 91.8858C96.1587 89.4128 95.7596 86.6161 95.9388 84.1088C96.0671 83.4692 96.5984 83.1234 97.2291 83.0694C99.8453 82.8452 102.776 83.244 105.425 83.0694C106.089 83.1027 106.645 83.5575 106.722 84.2358C106.521 86.9626 106.989 90.0738 106.725 92.755C106.667 93.3413 106.195 93.807 105.617 93.91C103.1 94.1035 100.241 93.6711 97.7648 93.9163C96.6301 94.0289 95.9581 94.9224 95.8672 96.0124C95.6786 98.2682 95.9301 100.896 95.9628 103.166C96.2913 104.269 97.0608 104.692 98.1609 104.763C100.608 104.92 103.225 104.641 105.691 104.759C106.255 104.868 106.692 105.339 106.724 105.922L106.692 114.61C106.607 115.011 106.1 115.478 105.683 115.532C103.169 115.707 100.38 115.317 97.8984 115.539C97.4426 115.579 96.8953 115.782 96.5554 116.093L96.5561 116.094Z" fill="white"/>
<path d="M160.933 109.085L160.428 109.878C157.286 113.694 150.216 112.546 148.334 107.999C146.48 103.521 148.513 97.9905 153.407 96.7435C156.888 95.8567 161.614 96.8848 162.665 100.769L160.577 101.294C160.331 100.972 160.189 100.59 159.933 100.271C158.365 98.3206 154.535 98.219 152.497 99.427C149.1 101.44 149.204 108.319 153.34 109.651C156.431 110.646 161.07 109.528 161.066 105.626H155.072V103.363H161.766C162.031 103.363 162.719 103.677 162.925 103.869C163.079 104.013 163.397 104.531 163.397 104.727V111.946H160.933V109.085H160.933Z" fill="white"/>
<path d="M191.633 96.7109L199.924 96.7782C201.629 96.9555 203.812 97.4155 204.452 99.2405C204.989 100.773 204.659 102.632 203.201 103.51L201.823 104.162H203.321C203.949 104.162 204.686 105.134 204.686 105.726V111.946H202.222V105.958H194.03V111.946H191.633V96.7109H191.633ZM194.03 103.696C195.687 103.629 197.413 103.786 199.061 103.699C200.836 103.605 202.352 103.238 202.358 101.132C202.363 98.8731 200.527 98.7138 198.728 98.6372C197.172 98.5709 195.589 98.6922 194.03 98.6398V103.696V103.696Z" fill="white"/>
<path d="M224.802 96.7109V98.9064H214.646L214.546 99.006V102.998L214.646 103.098H223.537V105.293H214.546V109.75H225.002V111.946H212.148V96.7109H224.802Z" fill="white"/>
<path d="M172.788 96.7113V106.059C172.788 106.413 173.066 107.21 173.229 107.547C175.073 111.367 182.112 110.296 182.112 105.859V96.7109H184.51L184.512 106.128C184.051 113.379 173.182 114.176 170.825 108.219C170.691 107.882 170.391 106.914 170.391 106.591V96.7113H172.788Z" fill="white"/>
<path d="M131.095 96.7109V98.9064H120.906V103.098H129.83V105.293H120.906V111.946H118.441V96.7109H131.095Z" fill="white"/>
<path d="M140.687 96.7109H138.223V111.946H140.687V96.7109Z" fill="white"/>
</g>
<defs>
<clipPath id="clip0_741_336">
<rect width="140" height="43.4598" fill="white" transform="translate(85 83)"/>
</clipPath>
</defs>
</svg>
