<svg width="310" height="209" viewBox="0 0 310 209" fill="none" xmlns="http://www.w3.org/2000/svg">
<g clip-path="url(#clip0_741_329)">
<path d="M87.9922 91C87.6415 91.6226 87.3267 92.2666 87.0404 92.9249C84.3212 92.5171 81.5518 92.5171 78.8255 92.9249C78.5464 92.2666 78.2243 91.6226 77.8737 91C75.3191 91.4365 72.8288 92.2022 70.4674 93.2827C65.7874 100.217 64.5208 106.972 65.1505 113.634C67.8912 115.659 70.9611 117.205 74.2314 118.192C74.9684 117.205 75.6196 116.153 76.1778 115.058C75.1187 114.665 74.0954 114.171 73.115 113.598C73.3726 113.412 73.6231 113.219 73.8664 113.033C79.6126 115.738 86.2676 115.738 92.021 113.033C92.2642 113.233 92.5147 113.427 92.7723 113.598C91.792 114.178 90.7687 114.665 89.7024 115.065C90.2606 116.16 90.9118 117.212 91.6489 118.2C94.919 117.212 97.9889 115.674 100.73 113.648C101.474 105.92 99.456 99.2221 95.3984 93.2899C93.0443 92.2094 90.554 91.4437 87.9993 91.0143L87.9922 91ZM76.9792 109.534C75.2117 109.534 73.7448 107.931 73.7448 105.949C73.7448 103.967 75.1545 102.356 76.9721 102.356C78.7897 102.356 80.2352 103.974 80.2065 105.949C80.1779 107.924 78.7825 109.534 76.9792 109.534ZM88.901 109.534C87.1263 109.534 85.6737 107.931 85.6737 105.949C85.6737 103.967 87.0834 102.356 88.901 102.356C90.7186 102.356 92.1569 103.974 92.1283 105.949C92.0997 107.924 90.7043 109.534 88.901 109.534ZM112.837 94.7724H123.518C126.092 94.7724 128.27 95.174 130.051 95.9773C131.691 96.6668 133.084 97.8372 134.045 99.334C134.946 100.813 135.407 102.517 135.376 104.248C135.395 105.987 134.916 107.695 133.995 109.169C132.967 110.727 131.497 111.942 129.773 112.659C127.885 113.52 125.544 113.949 122.751 113.946H112.837L112.837 94.7724ZM122.641 109.068C124.376 109.068 125.708 108.635 126.64 107.769C127.595 106.843 128.042 105.581 128.036 104.22C128.041 102.961 127.645 101.786 126.792 100.895C125.958 100.066 124.702 99.6496 123.025 99.647H119.684V109.068H122.641ZM151.369 113.915C149.96 113.562 148.612 112.999 147.37 112.244V107.698C148.454 108.487 149.675 109.068 150.97 109.412C152.387 109.844 153.858 110.07 155.34 110.081C155.851 110.108 156.362 110.02 156.834 109.823C157.171 109.651 157.339 109.432 157.339 109.205C157.346 108.948 157.247 108.7 157.065 108.52C156.752 108.28 156.386 108.12 155.997 108.054L152.711 107.315C150.828 106.877 149.491 106.27 148.701 105.496C147.899 104.687 147.473 103.578 147.527 102.44C147.514 101.42 147.885 100.433 148.568 99.6744C149.377 98.8187 150.397 98.1912 151.525 97.8552C152.978 97.3987 154.494 97.1807 156.016 97.2097C157.437 97.1964 158.854 97.362 160.234 97.7027C161.348 97.9667 162.418 98.391 163.411 98.9624V103.266C162.48 102.726 161.479 102.317 160.437 102.049C159.308 101.746 158.144 101.594 156.975 101.595C155.259 101.595 154.401 101.887 154.401 102.472C154.395 102.738 154.549 102.981 154.792 103.09C155.261 103.289 155.752 103.431 156.255 103.512L158.994 104.005C160.772 104.318 162.099 104.866 162.972 105.648C163.846 106.431 164.284 107.576 164.287 109.083C164.315 110.696 163.486 112.203 162.108 113.043C160.665 114.01 158.606 114.493 155.93 114.49C154.392 114.492 152.859 114.299 151.369 113.915ZM170.758 113.34C169.294 112.667 168.06 111.579 167.209 110.21C166.416 108.868 166.01 107.332 166.036 105.774C166.012 104.216 166.44 102.684 167.268 101.364C168.15 100.017 169.407 98.9569 170.883 98.3129C172.678 97.5309 174.622 97.1516 176.579 97.2019C179.318 97.2019 181.591 97.777 183.398 98.9271V103.947C182.71 103.484 181.959 103.124 181.168 102.878C180.282 102.599 179.358 102.46 178.43 102.468C176.732 102.468 175.403 102.778 174.443 103.399C173.094 104.152 172.611 105.856 173.364 107.205C173.609 107.644 173.968 108.009 174.404 108.262C175.335 108.89 176.686 109.205 178.457 109.205C179.371 109.207 180.28 109.075 181.156 108.813C181.955 108.584 182.723 108.257 183.441 107.839V112.69C181.324 113.925 178.908 114.55 176.458 114.498C174.494 114.551 172.545 114.155 170.758 113.34ZM190.217 113.34C188.737 112.664 187.481 111.578 186.598 110.21C185.767 108.871 185.335 107.322 185.354 105.746C185.328 104.189 185.76 102.658 186.598 101.345C187.485 100.012 188.736 98.9612 190.201 98.3168C193.802 96.8562 197.829 96.8562 201.43 98.3168C202.889 98.9563 204.135 100.002 205.017 101.329C205.849 102.647 206.278 104.18 206.249 105.738C206.269 107.313 205.842 108.861 205.017 110.202C204.144 111.571 202.894 112.658 201.418 113.332C197.842 114.866 193.793 114.866 190.217 113.332L190.217 113.34ZM198.538 108.481C199.222 107.775 199.585 106.818 199.54 105.836C199.588 104.863 199.224 103.915 198.538 103.223C197.795 102.541 196.807 102.189 195.8 102.249C194.794 102.196 193.808 102.546 193.061 103.223C192.378 103.916 192.016 104.864 192.064 105.836C192.019 106.817 192.38 107.773 193.061 108.481C193.801 109.171 194.79 109.531 195.8 109.478C196.811 109.537 197.802 109.176 198.538 108.481ZM222.708 98.2151V104.138C221.891 103.65 220.948 103.412 219.997 103.454C218.538 103.454 217.411 103.9 216.629 104.784C215.846 105.668 215.455 107.041 215.455 108.903V113.942H208.745V97.9217H215.318V103.008C215.683 101.145 216.273 99.7722 217.086 98.888C217.885 98.0081 219.044 97.5458 220.216 97.5579C221.084 97.556 221.957 97.7621 222.708 98.2151ZM245 94.2247V113.942H238.291V110.343C237.785 111.624 236.876 112.706 235.701 113.426C234.404 114.165 232.928 114.533 231.436 114.49C230.032 114.523 228.65 114.137 227.465 113.383C226.318 112.638 225.404 111.584 224.829 110.343C224.2 108.973 223.888 107.48 223.913 105.973C223.869 104.411 224.202 102.861 224.883 101.454C225.51 100.166 226.488 99.0813 227.704 98.3247C228.954 97.5671 230.393 97.178 231.855 97.2019C235.047 97.2019 237.192 98.5894 238.29 101.364V94.2247H245ZM237.305 108.387C237.996 107.706 238.369 106.766 238.334 105.797C238.363 104.856 237.988 103.948 237.305 103.301C235.722 102.013 233.453 102.013 231.871 103.301C231.189 103.963 230.82 104.883 230.857 105.832C230.823 106.79 231.195 107.719 231.882 108.387C232.608 109.062 233.576 109.416 234.566 109.369C235.574 109.425 236.562 109.07 237.305 108.387ZM141.033 93.6183C142.88 93.6183 144.378 94.9635 144.378 96.6229C144.378 98.2823 142.88 99.6275 141.033 99.6275C139.185 99.6275 137.688 98.2823 137.688 96.6229C137.688 94.9635 139.185 93.6183 141.033 93.6183ZM137.684 101.697C139.824 102.597 142.237 102.597 144.378 101.697V114.028H137.684V101.697Z" fill="white"/>
</g>
<defs>
<clipPath id="clip0_741_329">
<rect width="180" height="27.1996" fill="white" transform="translate(65 91)"/>
</clipPath>
</defs>
</svg>
