<svg width="310" height="209" viewBox="0 0 310 209" fill="none" xmlns="http://www.w3.org/2000/svg">
<g clip-path="url(#clip0_741_171)">
<path fill-rule="evenodd" clip-rule="evenodd" d="M210.993 105.078C210.993 97.1142 207.136 90.8301 199.763 90.8301C192.359 90.8301 187.879 97.1142 187.879 105.016C187.879 114.38 193.167 119.109 200.758 119.109C204.46 119.109 207.26 118.269 209.375 117.086V110.865C207.26 111.922 204.834 112.576 201.754 112.576C198.736 112.576 196.061 111.518 195.718 107.847H210.931C210.931 107.442 210.993 105.825 210.993 105.078ZM195.625 102.123C195.625 98.6074 197.772 97.1453 199.732 97.1453C201.629 97.1453 203.651 98.6074 203.651 102.123H195.625Z" fill="white"/>
<path fill-rule="evenodd" clip-rule="evenodd" d="M175.869 90.8301C172.821 90.8301 170.861 92.2611 169.772 93.2566L169.368 91.3278H162.523V127.601L170.301 125.953L170.332 117.149C171.452 117.957 173.101 119.109 175.838 119.109C181.407 119.109 186.478 114.629 186.478 104.767C186.447 95.7454 181.314 90.8301 175.869 90.8301ZM174.003 112.264C172.167 112.264 171.079 111.611 170.332 110.802L170.301 99.2607C171.11 98.3585 172.23 97.7364 174.003 97.7364C176.834 97.7364 178.794 100.91 178.794 104.985C178.794 109.154 176.865 112.264 174.003 112.264Z" fill="white"/>
<path fill-rule="evenodd" clip-rule="evenodd" d="M151.824 88.9951L159.633 87.3152V81L151.824 82.6488V88.9951Z" fill="white"/>
<path d="M159.633 91.3594H151.824V118.58H159.633V91.3594Z" fill="white"/>
<path fill-rule="evenodd" clip-rule="evenodd" d="M143.456 93.6617L142.958 91.3597H136.238V118.58H144.016V100.132C145.851 97.7371 148.962 98.1726 149.926 98.5148V91.3597C148.931 90.9863 145.291 90.3019 143.456 93.6617Z" fill="white"/>
<path fill-rule="evenodd" clip-rule="evenodd" d="M127.899 84.6084L120.308 86.2261L120.277 111.145C120.277 115.749 123.73 119.14 128.335 119.14C130.886 119.14 132.752 118.673 133.779 118.113V111.798C132.783 112.202 127.868 113.633 127.868 109.029V97.9854H133.779V91.3591H127.868L127.899 84.6084Z" fill="white"/>
<path fill-rule="evenodd" clip-rule="evenodd" d="M106.871 99.2607C106.871 98.0475 107.866 97.5808 109.515 97.5808C111.879 97.5808 114.866 98.2963 117.23 99.5718V92.2611C114.648 91.2345 112.097 90.8301 109.515 90.8301C103.2 90.8301 99 94.1277 99 99.634C99 108.22 110.822 106.851 110.822 110.553C110.822 111.984 109.577 112.451 107.835 112.451C105.253 112.451 101.955 111.393 99.3422 109.962V117.366C102.235 118.611 105.16 119.14 107.835 119.14C114.306 119.14 118.754 115.935 118.754 110.367C118.723 101.096 106.871 102.745 106.871 99.2607Z" fill="white"/>
</g>
<defs>
<clipPath id="clip0_741_171">
<rect width="112" height="46.6143" fill="white" transform="translate(99 81)"/>
</clipPath>
</defs>
</svg>
