<svg width="310" height="209" viewBox="0 0 310 209" fill="none" xmlns="http://www.w3.org/2000/svg">
<g clip-path="url(#clip0_741_115)">
<path d="M167.13 85.0605L155.013 91.8818L142.039 84.593L141.414 84.9299V90.2224L155.013 97.8467L167.128 91.0521V93.8528L155.013 100.676L142.039 93.3867L141.414 93.7236V94.6305L155.013 102.256L168.586 94.6305V89.3394L167.961 89.0025L155.013 96.2646L142.87 89.47V86.6679L155.013 93.4625L168.586 85.8396V80.6229L167.909 80.234L155.013 87.4709L143.495 81.0384L155.013 74.5807L164.477 79.8971L165.309 79.431V78.7825L155.013 73L141.414 80.6243V81.4554L155.013 89.0811L167.128 82.2584L167.13 85.0605Z" fill="white"/>
<path d="M97.266 135.194V111.902H93.6777V120.616C93.6777 120.747 93.5991 120.85 93.4699 120.902C93.4121 120.923 93.3497 120.926 93.2901 120.912C93.2304 120.898 93.1759 120.868 93.133 120.824C91.9103 119.397 90.0123 118.593 87.9318 118.593C83.4858 118.593 80 122.327 80 127.1C80 129.435 80.8072 131.589 82.2883 133.171C83.0088 133.946 83.8825 134.563 84.854 134.982C85.8255 135.402 86.8736 135.615 87.9318 135.608C89.9856 135.608 91.8836 134.751 93.1316 133.275C93.2102 133.171 93.3661 133.144 93.4685 133.171C93.5991 133.223 93.6791 133.325 93.6791 133.456V135.194H97.266ZM88.7123 132.366C85.8512 132.366 83.6163 130.058 83.6163 127.102C83.6163 124.144 85.8512 121.836 88.7123 121.836C91.5733 121.836 93.8083 124.144 93.8083 127.1C93.8083 130.057 91.5719 132.365 88.7123 132.365M116.455 135.195V118.983H112.894V120.617C112.894 120.748 112.815 120.85 112.684 120.902C112.625 120.926 112.559 120.929 112.498 120.911C112.437 120.892 112.384 120.853 112.348 120.8C111.151 119.372 109.279 118.568 107.146 118.568C102.7 118.568 99.2159 122.303 99.2159 127.075C99.2159 131.848 102.7 135.582 107.148 135.582C109.201 135.582 111.099 134.726 112.348 133.224C112.425 133.119 112.581 133.093 112.684 133.119C112.815 133.171 112.894 133.275 112.894 133.405V135.168H116.455V135.195ZM107.953 132.368C105.092 132.368 102.857 130.058 102.857 127.103C102.857 124.145 105.092 121.837 107.953 121.837C110.815 121.837 113.049 124.145 113.049 127.102C113.049 130.058 110.813 132.368 107.953 132.368ZM146.954 135.195V118.983H143.391V120.617C143.391 120.748 143.314 120.85 143.183 120.902C143.053 120.954 142.923 120.902 142.846 120.8C141.649 119.372 139.777 118.568 137.645 118.568C133.172 118.568 129.715 122.303 129.715 127.103C129.715 131.9 133.199 135.611 137.645 135.611C139.699 135.611 141.597 134.754 142.845 133.249C142.923 133.145 143.079 133.119 143.183 133.145C143.314 133.197 143.391 133.3 143.391 133.43V135.194L146.954 135.195ZM138.451 132.368C135.591 132.368 133.355 130.058 133.355 127.103C133.355 124.145 135.591 121.837 138.451 121.837C141.31 121.837 143.547 124.145 143.547 127.102C143.547 130.058 141.31 132.368 138.451 132.368ZM153.48 133.275C153.507 133.275 153.559 133.248 153.584 133.248C153.663 133.248 153.767 133.3 153.819 133.352C155.04 134.778 156.938 135.582 159.019 135.582C163.465 135.582 166.95 131.848 166.95 127.075C166.95 124.741 166.143 122.588 164.662 121.006C163.942 120.231 163.068 119.614 162.096 119.194C161.125 118.774 160.077 118.561 159.019 118.568C156.965 118.568 155.067 119.424 153.819 120.902C153.74 121.006 153.611 121.032 153.482 121.006C153.351 120.954 153.273 120.85 153.273 120.72V111.902H149.684V135.192H153.273V133.561C153.273 133.43 153.351 133.327 153.48 133.275ZM153.115 127.102C153.115 124.145 155.353 121.837 158.213 121.837C161.072 121.837 163.309 124.145 163.309 127.102C163.309 130.058 161.072 132.366 158.213 132.366C155.353 132.366 153.115 130.033 153.115 127.102ZM177.325 122.306C177.662 122.306 177.975 122.333 178.181 122.385V118.701C177.984 118.666 177.784 118.649 177.584 118.649C175.712 118.649 173.996 119.609 173.087 121.14C173.008 121.269 172.877 121.322 172.748 121.269C172.684 121.253 172.626 121.217 172.584 121.165C172.541 121.114 172.517 121.05 172.514 120.984V118.986H168.952V135.223H172.54V128.063C172.54 124.512 174.36 122.308 177.325 122.308M184.084 118.985H180.444V135.222H184.084V118.985ZM182.212 111.928C181.917 111.92 181.625 111.972 181.351 112.079C181.077 112.187 180.827 112.348 180.616 112.553C180.405 112.759 180.238 113.004 180.124 113.276C180.009 113.547 179.95 113.838 179.95 114.132C179.95 114.427 180.009 114.718 180.124 114.989C180.238 115.26 180.405 115.506 180.616 115.711C180.827 115.917 181.077 116.078 181.351 116.186C181.625 116.293 181.917 116.345 182.212 116.337C182.508 116.348 182.803 116.298 183.079 116.192C183.356 116.086 183.608 115.926 183.822 115.72C184.035 115.514 184.204 115.268 184.32 114.995C184.436 114.723 184.496 114.429 184.496 114.133C184.496 113.837 184.436 113.544 184.32 113.271C184.204 112.998 184.035 112.752 183.822 112.546C183.608 112.34 183.356 112.18 183.079 112.074C182.803 111.968 182.508 111.918 182.212 111.929M194.745 118.568C189.753 118.568 186.138 122.148 186.138 127.103C186.138 129.514 186.997 131.666 188.53 133.224C190.091 134.779 192.274 135.636 194.718 135.636C196.747 135.636 198.307 135.247 201.272 133.067L199.218 130.915C197.761 131.875 196.409 132.341 195.083 132.341C192.067 132.341 189.805 130.085 189.805 127.102C189.805 124.119 192.067 121.863 195.083 121.863C196.513 121.863 197.839 122.33 199.166 123.289L201.453 121.137C198.776 118.854 196.357 118.568 194.745 118.568ZM207.589 128.061C207.617 128.034 207.65 128.014 207.686 128C207.722 127.987 207.76 127.981 207.798 127.983H207.823C207.902 127.983 207.979 128.035 208.058 128.086L213.804 135.194H218.225L210.788 126.219C210.683 126.09 210.683 125.907 210.814 125.805L217.652 118.982H213.258L207.356 124.896C207.277 124.974 207.148 125 207.018 124.974C206.964 124.948 206.918 124.907 206.886 124.857C206.854 124.807 206.836 124.748 206.835 124.689V111.928H203.222V135.219H206.81V128.89C206.81 128.813 206.835 128.708 206.914 128.657L207.589 128.061Z" fill="white"/>
<path d="M224.073 135.609C227.011 135.609 230.001 133.82 230.001 130.422C230.001 128.192 228.597 126.66 225.738 125.728L223.786 125.079C222.461 124.638 221.836 124.015 221.836 123.16C221.836 122.175 222.721 121.499 223.969 121.499C225.165 121.499 226.23 122.279 226.907 123.626L229.793 122.071C228.728 119.892 226.517 118.543 223.969 118.543C220.744 118.543 218.405 120.618 218.405 123.445C218.405 125.701 219.757 127.206 222.538 128.088L224.542 128.736C225.945 129.177 226.543 129.747 226.543 130.655C226.543 132.031 225.269 132.522 224.177 132.522C222.721 132.522 221.421 131.589 220.797 130.059L217.859 131.616C218.821 134.079 221.186 135.609 224.073 135.609ZM126.44 135.454C127.585 135.454 128.6 135.35 129.171 135.271V132.16C128.575 132.222 127.976 132.256 127.377 132.263C125.921 132.263 124.804 132.004 124.804 128.865V122.2C124.804 122.017 124.933 121.888 125.115 121.888H128.625V118.957H125.115C125.074 118.959 125.033 118.952 124.994 118.937C124.956 118.922 124.921 118.899 124.892 118.87C124.863 118.841 124.84 118.806 124.825 118.767C124.809 118.729 124.802 118.688 124.804 118.647V113.978H121.215V118.672C121.215 118.855 121.085 118.984 120.902 118.984H118.406V121.915H120.902C121.085 121.915 121.215 122.044 121.215 122.225V129.774C121.215 135.454 125.011 135.454 126.44 135.454Z" fill="white"/>
</g>
<defs>
<clipPath id="clip0_741_115">
<rect width="150" height="62.6361" fill="white" transform="translate(80 73)"/>
</clipPath>
</defs>
</svg>
