<svg width="310" height="209" viewBox="0 0 310 209" fill="none" xmlns="http://www.w3.org/2000/svg">
<g clip-path="url(#clip0_741_53)">
<path d="M116.163 94.4062H119.512V103.312L128.442 94.4062H132.908L124.908 102.188L133.28 115.312H128.814L122.303 104.719L119.419 107.531V115.406H116.07L116.163 94.4062Z" fill="white"/>
<path d="M135.141 94.4063H138.489V98.0625C138.769 97.4063 139.42 96.4688 140.443 95.5313C141.466 94.5 142.676 94.0312 144.071 94.0312C144.164 94.0312 144.257 94.0312 144.443 94.0312C144.629 94.0312 144.908 94.0313 145.28 94.125V97.875C145.094 97.875 144.908 97.7813 144.722 97.7813C144.536 97.7813 144.35 97.7813 144.164 97.7813C142.396 97.7813 141.094 98.3438 140.164 99.4688C139.234 100.594 138.769 101.906 138.769 103.406V115.406H135.234L135.141 94.4063Z" fill="white"/>
<path d="M158.21 102.656C159.047 102.563 159.513 102.187 159.792 101.625C159.978 101.344 159.978 100.875 159.978 100.313C159.978 99.0938 159.513 98.25 158.675 97.6875C157.838 97.125 156.629 96.8437 155.047 96.8437C153.187 96.8437 151.978 97.3125 151.14 98.3437C150.675 98.9062 150.396 99.75 150.303 100.781H147.047C147.14 98.1563 147.978 96.375 149.559 95.4375C151.233 94.4062 153.001 93.9375 155.14 93.9375C157.559 93.9375 159.513 94.4062 161.094 95.3438C162.582 96.2812 163.326 97.7812 163.326 99.75V111.75C163.326 112.125 163.42 112.406 163.513 112.594C163.699 112.781 163.978 112.969 164.443 112.969C164.629 112.969 164.815 112.969 165.001 112.969C165.187 112.969 165.373 112.875 165.652 112.875V115.5C165.094 115.688 164.722 115.781 164.443 115.781C164.164 115.781 163.792 115.875 163.326 115.875C162.117 115.875 161.28 115.406 160.722 114.562C160.443 114.094 160.257 113.437 160.164 112.594C159.42 113.531 158.396 114.375 157.094 115.031C155.792 115.687 154.303 116.063 152.722 116.063C150.768 116.063 149.187 115.5 147.978 114.281C146.768 113.063 146.117 111.656 146.117 109.875C146.117 107.906 146.675 106.406 147.885 105.375C149.094 104.344 150.675 103.688 152.629 103.406L158.21 102.656ZM150.861 112.125C151.606 112.687 152.443 112.969 153.466 112.969C154.675 112.969 155.885 112.687 157.001 112.125C158.954 111.187 159.885 109.594 159.885 107.437V104.625C159.42 104.906 158.954 105.094 158.21 105.281C157.466 105.469 156.908 105.562 156.257 105.656L154.21 106.125C152.908 106.313 151.978 106.594 151.326 106.969C150.21 107.625 149.745 108.563 149.745 109.875C149.745 110.812 150.117 111.562 150.861 112.125Z" fill="white"/>
<path d="M167.976 94.4062H171.325V103.312L180.255 94.4062H184.72L176.72 102.188L185.092 115.312H180.627L174.115 104.719L171.232 107.531V115.406H167.883L167.976 94.4062Z" fill="white"/>
<path d="M199.325 95.0624C200.72 95.7187 201.743 96.6562 202.487 97.7812C203.139 98.8124 203.604 100.031 203.883 101.437C204.069 102.375 204.162 103.969 204.162 106.031H189.092C189.185 108.187 189.65 109.875 190.58 111.187C191.511 112.5 192.906 113.156 194.859 113.156C196.627 113.156 198.115 112.594 199.139 111.375C199.697 110.625 200.162 109.875 200.441 108.937H203.883C203.79 109.687 203.511 110.531 202.952 111.469C202.487 112.406 201.836 113.156 201.278 113.812C200.255 114.844 198.952 115.594 197.371 115.875C196.534 116.062 195.604 116.156 194.58 116.156C191.976 116.156 189.836 115.219 188.069 113.344C186.301 111.469 185.371 108.844 185.371 105.469C185.371 102.094 186.301 99.3749 188.069 97.3124C189.836 95.2499 192.255 94.1249 195.139 94.1249C196.534 93.9374 197.929 94.3124 199.325 95.0624ZM200.627 103.219C200.441 101.719 200.162 100.5 199.604 99.5624C198.673 97.8749 197.092 97.0312 194.859 97.0312C193.278 97.0312 191.976 97.5937 190.859 98.8124C189.743 99.9374 189.185 101.437 189.185 103.219H200.627Z" fill="white"/>
<path d="M207.23 94.4062H210.579V97.4062C211.603 96.1875 212.626 95.3438 213.742 94.7812C214.858 94.2187 216.068 93.9375 217.37 93.9375C220.347 93.9375 222.3 94.9688 223.323 97.0313C223.882 98.1563 224.161 99.75 224.161 101.906V115.312H220.626V102.188C220.626 100.875 220.44 99.8438 220.068 99.0938C219.417 97.7813 218.3 97.125 216.719 97.125C215.882 97.125 215.23 97.2187 214.672 97.4062C213.742 97.6875 212.905 98.25 212.161 99.0938C211.603 99.75 211.23 100.5 211.044 101.25C210.858 102 210.765 103.031 210.765 104.437V115.406H207.323L207.23 94.4062Z" fill="white"/>
<path d="M99.139 94.4062C91.8832 94.4062 85.9297 100.313 85.9297 107.719V113.438C85.9297 114.469 86.7669 115.313 87.7902 115.313C88.8134 115.313 89.6506 114.469 89.6506 113.438V107.719C89.6506 106.688 90.4878 105.844 91.5111 105.844C92.5343 105.844 93.3715 106.688 93.3715 107.719V113.438C93.3715 114.469 94.2088 115.313 95.232 115.313C96.2553 115.313 97.0925 114.469 97.0925 113.438V107.719C97.0925 106.688 97.9297 105.844 98.9529 105.844C99.9762 105.844 100.813 106.688 100.813 107.719V113.438C100.813 114.469 101.651 115.313 102.674 115.313C103.697 115.313 104.534 114.469 104.534 113.438V107.719C104.534 106.688 105.372 105.844 106.395 105.844C107.418 105.844 108.255 106.688 108.255 107.719V113.438C108.255 114.469 109.092 115.313 110.116 115.313C111.139 115.313 111.976 114.469 111.976 113.438V107.719C112.441 100.313 106.488 94.4062 99.139 94.4062Z" fill="white"/>
</g>
<defs>
<clipPath id="clip0_741_53">
<rect width="140" height="24" fill="white" transform="translate(85 93)"/>
</clipPath>
</defs>
</svg>
