<svg width="310" height="209" viewBox="0 0 310 209" fill="none" xmlns="http://www.w3.org/2000/svg">
<g clip-path="url(#clip0_741_214)">
<path d="M113.947 100.483C113.947 101.428 113.767 102.327 113.452 103.092C113.137 103.857 112.687 104.532 112.057 105.117C111.428 105.702 110.618 106.106 109.673 106.421C108.728 106.736 107.648 106.871 106.389 106.871H104.004V111.055C104.319 111.1 104.634 111.145 104.814 111.19C104.994 111.235 105.399 111.28 105.399 111.28C105.849 111.37 106.074 111.64 106.074 112.135V113.71H104.049H100.45H98.4258V112.135C98.4258 111.685 98.6507 111.415 99.1006 111.28C99.1006 111.28 99.4605 111.19 99.6855 111.19C99.8654 111.145 100.18 111.1 100.495 111.055V96.9737C100.18 96.9288 99.8654 96.8838 99.6855 96.8388C99.5055 96.7938 99.1006 96.7488 99.1006 96.7488C98.6507 96.6588 98.4258 96.3889 98.4258 95.894V94.2744H100.45H106.389C107.693 94.2744 108.818 94.4544 109.763 94.7243C110.708 95.0392 111.473 95.4891 112.102 96.029C112.732 96.5688 113.182 97.1987 113.452 97.9635C113.812 98.7283 113.947 99.5831 113.947 100.483ZM110.348 100.483C110.348 99.988 110.258 99.4931 110.123 99.0882C109.943 98.6383 109.718 98.3234 109.403 98.0085C109.088 97.6936 108.683 97.5136 108.188 97.3336C107.693 97.1537 107.109 97.1087 106.434 97.1087H104.049V104.082H106.389C107.064 104.082 107.648 103.992 108.143 103.857C108.638 103.677 109.043 103.497 109.358 103.137C109.673 102.822 109.943 102.462 110.078 102.012C110.258 101.563 110.348 101.023 110.348 100.483Z" fill="white"/>
<path d="M124.024 109.345C124.024 110.02 123.889 110.65 123.664 111.19C123.44 111.775 123.08 112.225 122.63 112.63C122.18 113.034 121.595 113.349 120.92 113.574C120.245 113.799 119.436 113.934 118.536 113.934C116.826 113.934 115.162 113.574 114.172 113.169V111.82V109.255H114.622H115.701C116.061 109.255 116.241 109.435 116.331 109.75C116.376 109.885 116.421 110.245 116.511 111.325C117.231 111.55 118.086 111.55 118.671 111.55C119.076 111.55 119.436 111.505 119.705 111.415C120.02 111.325 120.2 111.19 120.425 111.055C120.605 110.875 120.74 110.74 120.83 110.56C120.92 110.335 120.92 110.11 120.92 109.93C120.92 109.615 120.83 109.345 120.65 109.165C120.47 108.94 120.2 108.806 119.885 108.626C119.571 108.446 119.211 108.311 118.806 108.221C118.401 108.086 117.951 107.951 117.546 107.816C117.096 107.681 116.691 107.501 116.331 107.321C115.926 107.141 115.567 106.871 115.252 106.601C114.937 106.286 114.667 105.971 114.487 105.521C114.307 105.071 114.172 104.577 114.172 103.947C114.172 103.362 114.262 102.867 114.487 102.327C114.712 101.832 115.072 101.337 115.477 100.977C115.926 100.618 116.466 100.258 117.096 100.078C117.726 99.8527 118.446 99.7178 119.346 99.7178C120.695 99.7178 121.415 99.8527 123.35 100.438V104.352H122.9H121.775C121.415 104.352 121.235 104.172 121.145 103.857C121.1 103.722 121.055 103.407 120.965 102.372C120.605 102.282 119.975 102.192 119.346 102.192C118.716 102.192 118.176 102.327 117.816 102.597C117.456 102.867 117.231 103.227 117.231 103.677C117.231 103.992 117.321 104.217 117.546 104.442C117.726 104.667 117.996 104.802 118.311 104.936C118.626 105.116 118.986 105.251 119.391 105.386C119.795 105.476 120.2 105.611 120.605 105.746C121.055 105.881 121.46 106.061 121.865 106.241C122.27 106.421 122.63 106.646 122.945 106.961C123.26 107.231 123.53 107.546 123.709 107.951C123.934 108.311 124.024 108.761 124.024 109.345Z" fill="white"/>
<path d="M132.349 112.134V113.709H130.324H127.04H125.016V112.134C125.016 111.684 125.241 111.415 125.69 111.28C125.735 111.28 126.05 111.19 126.275 111.19C126.455 111.145 126.77 111.1 127.085 111.055V102.597C126.77 102.552 126.455 102.507 126.275 102.462C126.095 102.417 125.735 102.372 125.69 102.372C125.241 102.282 125.016 102.012 125.016 101.517V99.9424H127.04H130.324V111.055C130.639 111.1 130.954 111.145 131.134 111.19C131.314 111.235 131.674 111.28 131.719 111.28C132.124 111.415 132.349 111.684 132.349 112.134Z" fill="white"/>
<path d="M130.819 95.8938C130.819 97.0635 129.874 98.0082 128.704 98.0082C127.535 98.0082 126.59 97.0635 126.59 95.8938C126.59 94.7241 127.535 93.7793 128.704 93.7793C129.874 93.7793 130.819 94.7241 130.819 95.8938Z" fill="white"/>
<path d="M152.188 106.781C152.008 107.591 151.738 108.356 151.378 109.076C151.018 109.795 150.613 110.38 150.118 110.965C149.624 111.55 149.039 112.045 148.409 112.45L153.358 117.758H151.198C150.883 117.758 150.613 117.758 150.343 117.668C150.074 117.578 149.894 117.398 149.669 117.174L146.294 113.484C145.8 113.664 145.26 113.754 144.72 113.844C144.18 113.934 143.595 114.024 143.01 114.024C141.616 114.024 140.311 113.754 139.141 113.26C137.972 112.765 136.982 112.09 136.127 111.235C135.272 110.38 134.642 109.346 134.192 108.131C133.743 106.916 133.473 105.611 133.473 104.172C133.473 102.732 133.698 101.383 134.192 100.213C134.642 98.9981 135.272 97.9634 136.127 97.1086C136.982 96.2538 137.972 95.534 139.141 95.0841C140.311 94.5892 141.616 94.3643 143.01 94.3643C144.405 94.3643 145.71 94.5892 146.879 95.0841C148.049 95.579 149.039 96.2538 149.894 97.1086C150.748 97.9634 151.378 98.9981 151.828 100.213C152.278 101.427 152.503 102.732 152.503 104.172C152.458 104.082 152.368 105.971 152.188 106.781ZM149.309 100.978C148.994 100.033 148.499 99.268 147.914 98.5932C147.329 97.9634 146.609 97.4235 145.755 97.1086C144.9 96.7487 144 96.6137 142.965 96.6137C141.931 96.6137 140.986 96.7937 140.131 97.1086C139.276 97.4685 138.556 97.9634 137.972 98.5932C137.387 99.223 136.937 100.033 136.622 100.978C136.307 101.922 136.127 103.002 136.127 104.172C136.127 105.342 136.307 106.421 136.622 107.366C136.937 108.311 137.387 109.076 137.972 109.75C138.556 110.38 139.276 110.92 140.131 111.235C140.986 111.595 141.931 111.73 142.965 111.73C144 111.73 144.945 111.55 145.8 111.235C146.654 110.875 147.374 110.38 147.959 109.75C148.544 109.121 148.994 108.311 149.309 107.366C149.624 106.421 149.804 105.342 149.804 104.172C149.804 103.002 149.624 101.922 149.309 100.978Z" fill="white"/>
<path d="M160.243 112.044C161.593 112.044 162.807 111.414 163.932 110.155V102.102C163.752 102.057 163.257 101.922 162.403 101.787C162.133 101.742 161.998 101.562 161.998 101.292V100.122H163.932H166.317V111.774C167.171 111.954 167.666 112.044 167.846 112.089C168.116 112.134 168.251 112.314 168.251 112.584V113.754H164.877C164.562 113.754 164.337 113.574 164.247 113.259L164.067 111.819C162.762 113.259 161.278 113.979 159.568 113.979C158.129 113.979 157.004 113.484 156.194 112.539C155.429 111.639 155.024 110.424 155.024 108.805V102.102C154.17 101.922 153.675 101.832 153.54 101.787C153.27 101.742 153.09 101.562 153.09 101.292V100.167H157.454V108.805C157.454 109.84 157.679 110.649 158.174 111.234C158.578 111.774 159.298 112.044 160.243 112.044Z" fill="white"/>
<path d="M181.204 112.494V113.664H179.45H179.27H178.415C178.19 113.664 178.01 113.619 177.83 113.574C177.65 113.529 177.605 113.349 177.56 113.124L177.29 111.82C176.93 112.135 176.525 112.449 176.21 112.719C175.895 112.989 175.49 113.214 175.131 113.349C174.771 113.529 174.366 113.664 173.961 113.754C173.511 113.844 173.061 113.889 172.521 113.889C171.981 113.889 171.531 113.799 171.082 113.664C170.632 113.484 170.182 113.304 169.867 113.034C169.552 112.719 169.282 112.359 169.057 111.91C168.832 111.46 168.742 110.92 168.742 110.29C168.742 109.75 168.877 109.21 169.192 108.715C169.507 108.221 170.002 107.726 170.632 107.366C171.262 107.006 172.116 106.646 173.196 106.376C174.276 106.151 175.58 106.016 177.11 106.016V104.981C177.11 103.902 176.885 103.092 176.39 102.552C175.94 102.012 175.266 101.697 174.366 101.697C173.781 101.697 173.286 101.787 172.881 101.922C172.476 102.102 172.161 102.237 171.846 102.417C171.531 102.597 171.262 102.732 171.082 102.912C170.857 103.092 170.677 103.137 170.452 103.137C170.272 103.137 170.137 103.092 170.002 103.047C169.912 102.957 169.777 102.822 169.732 102.732L169.282 101.967C170.047 101.247 170.857 100.752 171.711 100.347C172.566 99.9876 173.556 99.8076 174.636 99.8076C175.401 99.8076 176.075 99.8976 176.66 100.168C177.245 100.437 177.74 100.752 178.145 101.202C178.55 101.652 178.865 102.192 179.045 102.822C179.27 103.452 179.36 104.172 179.36 104.936V111.73C179.719 111.82 180.619 112 180.709 112.045C180.889 112.09 181.204 112.27 181.204 112.494ZM177.065 107.591C175.985 107.591 175.041 107.636 174.276 107.771C173.511 107.906 172.881 108.131 172.386 108.355C171.891 108.58 171.531 108.85 171.307 109.165C171.082 109.48 170.992 109.795 170.992 110.2C170.992 110.56 171.082 110.83 171.172 111.1C171.262 111.37 171.442 111.595 171.666 111.73C171.891 111.91 172.116 112 172.386 112.09C172.656 112.18 172.971 112.225 173.286 112.225C173.736 112.225 174.051 112.18 174.411 112.09C174.771 112 175.086 111.91 175.401 111.73C175.715 111.55 176.03 111.37 176.3 111.145C176.57 110.92 176.84 110.65 177.11 110.38V107.591H177.065Z" fill="white"/>
<path d="M186.201 102.057C187.551 100.617 189.036 99.8975 190.7 99.8975C192.14 99.8975 193.265 100.347 194.074 101.337C194.839 102.237 195.244 103.497 195.244 105.071V111.774C196.099 111.954 196.594 112.044 196.774 112.089C197.044 112.134 197.224 112.314 197.224 112.584V113.754H192.86V105.071C192.86 102.912 191.915 101.787 190.026 101.787C188.676 101.787 187.461 102.417 186.336 103.677V111.73C186.381 111.73 186.921 111.819 187.911 112.044C188.181 112.089 188.316 112.269 188.316 112.539V113.664H182.062V112.539C182.062 112.269 182.152 112.089 182.422 112.044L183.997 111.73V102.102C183.142 101.922 182.602 101.832 182.422 101.787C182.152 101.742 182.062 101.562 182.062 101.292V100.167H183.997H185.392C185.707 100.167 185.932 100.347 186.022 100.662L186.201 102.057Z" fill="white"/>
<path d="M199.743 113.035C199.158 112.45 198.888 111.595 198.888 110.47V102.102H197.268C197.088 102.102 196.998 102.057 196.908 102.012C196.818 101.922 196.773 101.787 196.773 101.607V100.663L199.023 100.348L199.563 96.1188C199.563 95.9838 199.608 95.8938 199.743 95.8038C199.833 95.7139 199.968 95.7139 200.103 95.7139H201.317V100.393H205.231V102.147H201.317V110.335C201.317 110.92 201.452 111.37 201.722 111.64C201.992 111.91 202.397 112.045 202.802 112.045C203.072 112.045 203.297 112 203.477 111.955C203.657 111.91 203.837 111.82 203.972 111.73C204.107 111.64 204.287 111.55 204.287 111.55C204.287 111.55 204.512 111.415 204.556 111.415C204.646 111.415 204.781 111.46 204.871 111.64L205.591 112.765C205.141 113.125 204.691 113.484 204.107 113.664C203.522 113.889 202.937 113.979 202.307 113.979C201.137 113.934 200.328 113.619 199.743 113.035Z" fill="white"/>
<path d="M213.462 112.044C214.811 112.044 216.026 111.414 217.151 110.155V102.102C216.971 102.057 216.476 101.922 215.621 101.787C215.351 101.742 215.216 101.562 215.216 101.292V100.122H217.151H219.535V111.774C220.39 111.954 220.885 112.044 221.065 112.089C221.335 112.134 221.47 112.314 221.47 112.584V113.754H218.096C217.781 113.754 217.466 113.439 217.466 113.259C217.421 113.079 217.286 111.819 217.286 111.819C215.981 113.259 214.497 113.979 212.787 113.979C211.347 113.979 210.223 113.484 209.413 112.539C208.648 111.639 208.243 110.424 208.243 108.805V102.102C207.388 101.922 206.893 101.832 206.758 101.787C206.489 101.742 206.309 101.562 206.309 101.292V100.167H210.672V108.805C210.672 109.84 210.897 110.649 211.392 111.234C211.797 111.774 212.517 112.044 213.462 112.044Z" fill="white"/>
<path d="M226.869 102.057C227.994 100.662 229.299 99.9424 230.693 99.9424C231.593 99.9424 232.403 100.212 232.943 100.707C233.528 101.202 233.933 101.922 234.158 102.777C234.518 101.832 235.102 101.112 235.912 100.617C236.677 100.167 237.442 99.8975 238.297 99.8975C239.151 99.8975 239.826 100.032 240.411 100.257C240.996 100.482 241.491 100.842 241.851 101.247C242.66 102.147 243.02 103.407 243.02 105.071V111.774C243.875 111.954 244.415 112.044 244.595 112.089C244.865 112.134 245 112.314 245 112.584V113.754H240.681V105.116C240.681 104.036 240.456 103.227 239.961 102.687C239.466 102.147 238.791 101.832 237.937 101.832C237.127 101.832 236.452 102.102 235.912 102.642C235.327 103.227 235.012 104.036 235.012 105.071V111.774C235.192 111.819 235.687 111.954 236.542 112.089C236.812 112.134 236.947 112.314 236.947 112.584V113.754H232.628V105.071C232.628 102.912 231.773 101.832 230.064 101.832C228.939 101.832 227.949 102.417 227.049 103.587V111.774C227.049 111.774 228.489 112.044 228.579 112.089C228.849 112.134 228.984 112.314 228.984 112.584V113.709H222.73V112.584C222.73 112.314 222.82 112.134 223.09 112.089L224.665 111.774V102.102C223.81 101.922 223.27 101.832 223.09 101.787C222.82 101.742 222.73 101.562 222.73 101.292V100.167H224.665H226.06C226.375 100.167 226.599 100.347 226.689 100.662L226.869 102.057Z" fill="white"/>
<path d="M93.2529 119.333H65V90H93.2529V119.333ZM66.1247 118.208H92.1282V91.1247H66.1247V118.208Z" fill="white"/>
<path d="M88.7078 97.6934H88.2579C87.763 97.6934 87.4031 97.8284 87.2231 98.1433C87.0432 98.4582 86.9532 99.133 86.9532 100.168V102.777C86.9532 104.397 86.4133 105.656 85.3336 106.466C84.2539 107.321 82.6793 107.771 80.5648 107.861V110.245C80.5648 111.055 80.6998 111.595 81.0147 111.91C81.3296 112.18 81.9595 112.36 82.8592 112.36L82.8142 112.855H75.616V112.36C76.5608 112.36 77.1907 112.18 77.5056 111.91C77.8205 111.64 77.9555 111.1 77.9555 110.245V107.906C75.841 107.816 74.2214 107.366 73.1417 106.511C72.0619 105.656 71.5671 104.442 71.5671 102.822V100.213C71.5671 99.133 71.4771 98.4582 71.2971 98.1883C71.1172 97.8733 70.7573 97.7384 70.2624 97.7384H69.8125V97.1535C69.9925 97.1085 70.1724 97.1085 70.3974 97.0635C70.6223 97.0635 70.8472 97.0186 71.0722 97.0186C72.1969 97.0186 72.9617 97.3335 73.4566 97.9183C73.9515 98.5032 74.1764 99.5379 74.1764 100.978V103.092C74.1764 104.622 74.4463 105.701 74.9862 106.241C75.5261 106.826 76.5158 107.141 78.0005 107.231V99.7629C78.0005 98.9531 77.8655 98.4132 77.5506 98.1433C77.2356 97.8733 76.6058 97.6934 75.661 97.6934V97.1985H82.8592V97.6484C81.9145 97.6934 81.2846 97.8284 81.0147 98.0983C80.6998 98.3682 80.5648 98.9081 80.5648 99.7179V107.186C82.0045 107.096 83.0392 106.781 83.5791 106.196C84.1189 105.611 84.3889 104.577 84.3889 103.047V100.933C84.3889 99.4929 84.6138 98.4582 85.1087 97.8733C85.5586 97.2885 86.3684 97.0186 87.4931 97.0186C87.718 97.0186 87.943 97.0186 88.1679 97.0635C88.3929 97.0635 88.5728 97.1085 88.7528 97.1535V97.6934H88.7078Z" fill="white"/>
</g>
<defs>
<clipPath id="clip0_741_214">
<rect width="180" height="29.3327" fill="white" transform="translate(65 90)"/>
</clipPath>
</defs>
</svg>
