<svg width="310" height="209" viewBox="0 0 310 209" fill="none" xmlns="http://www.w3.org/2000/svg">
<path d="M117.28 113.683V106.908H121.044C122.442 106.908 123.652 106.693 124.647 106.236C125.642 105.779 126.421 105.134 126.932 104.273C127.443 103.413 127.712 102.391 127.712 101.208C127.712 100.079 127.443 99.0576 126.932 98.1703C126.394 97.2831 125.642 96.5841 124.62 96.1001C123.598 95.6162 122.415 95.3473 121.017 95.3473H114V113.657H117.28V113.683ZM121.044 104.3H117.28V98.009H121.044C121.824 98.009 122.469 98.1703 122.98 98.4661C123.491 98.7618 123.867 99.1651 124.109 99.649C124.351 100.133 124.486 100.671 124.486 101.262C124.486 102.203 124.217 102.956 123.652 103.494C123.087 104.031 122.227 104.3 121.044 104.3ZM135.831 113.925C137.122 113.925 138.251 113.63 139.219 113.038C140.187 112.447 140.913 111.613 141.424 110.565C141.934 109.516 142.176 108.333 142.176 107.016V106.747C142.176 105.429 141.934 104.247 141.424 103.198C140.913 102.149 140.187 101.316 139.219 100.724C138.251 100.133 137.122 99.8372 135.804 99.8372C134.514 99.8372 133.385 100.133 132.444 100.724C131.476 101.316 130.75 102.149 130.239 103.198C129.728 104.247 129.486 105.429 129.486 106.747V107.016C129.486 108.333 129.728 109.516 130.239 110.565C130.75 111.613 131.476 112.447 132.444 113.038C133.412 113.63 134.541 113.925 135.831 113.925ZM135.831 111.398C134.756 111.398 133.949 110.995 133.412 110.161C132.874 109.328 132.605 108.279 132.605 106.989V106.72C132.605 105.887 132.713 105.161 132.955 104.488C133.197 103.816 133.546 103.279 134.03 102.902C134.514 102.499 135.105 102.311 135.804 102.311C136.53 102.311 137.122 102.499 137.606 102.902C138.09 103.306 138.439 103.816 138.681 104.488C138.923 105.161 139.031 105.887 139.031 106.72V106.989C139.031 107.822 138.923 108.575 138.681 109.22C138.439 109.893 138.09 110.403 137.606 110.807C137.149 111.21 136.53 111.398 135.831 111.398ZM148.038 113.683V94.3525H144.919V113.683H148.038ZM152.527 119.168C153.71 119.168 154.625 118.819 155.27 118.146C155.915 117.474 156.399 116.668 156.749 115.727L162.18 100.052H158.846L156.103 109.193L153.28 100.052H149.893L154.678 113.603L154.248 114.759C154.033 115.431 153.71 115.888 153.334 116.157C152.931 116.426 152.366 116.56 151.64 116.56L151.049 116.533V118.926C151.64 119.087 152.124 119.168 152.527 119.168ZM167.019 113.683V103.843C167.53 102.875 168.363 102.365 169.573 102.365C170.353 102.365 170.971 102.553 171.374 102.956C171.778 103.359 171.993 104.005 171.993 104.919V113.71H175.112V104.65V104.354C175.3 103.763 175.596 103.279 176.053 102.929C176.483 102.58 177.047 102.391 177.693 102.391C178.499 102.391 179.091 102.58 179.494 102.929C179.897 103.306 180.086 103.951 180.086 104.865V113.683H183.204V104.892C183.204 103.144 182.828 101.854 182.048 101.047C181.295 100.241 180.193 99.8372 178.741 99.8372C177.827 99.8372 177.021 100.025 176.321 100.375C175.622 100.751 175.031 101.262 174.574 101.907C174.224 101.208 173.74 100.671 173.095 100.348C172.45 99.9986 171.724 99.8372 170.864 99.8372C170.03 99.8372 169.277 99.9717 168.605 100.267C167.96 100.563 167.395 100.966 166.938 101.531L166.831 100.106H163.9V113.71H167.019V113.683ZM190.49 113.925C191.243 113.925 191.915 113.791 192.507 113.522C193.098 113.253 193.609 112.877 194.039 112.42C194.147 112.984 194.254 113.388 194.389 113.683H197.588V113.468C197.239 112.742 197.077 111.748 197.077 110.511V104.515C197.077 103.494 196.862 102.633 196.405 101.934C195.948 101.235 195.33 100.698 194.55 100.348C193.744 99.9986 192.829 99.8104 191.808 99.8104C190.705 99.8104 189.711 99.9986 188.85 100.402C187.99 100.805 187.318 101.316 186.861 101.961C186.404 102.606 186.162 103.279 186.162 104.005H189.28C189.28 103.655 189.388 103.359 189.576 103.064C189.764 102.795 190.033 102.58 190.383 102.418C190.732 102.257 191.136 102.176 191.593 102.176C192.372 102.176 192.937 102.391 193.34 102.795C193.744 103.198 193.932 103.763 193.932 104.488V105.376H192.05C190.06 105.376 188.555 105.752 187.452 106.532C186.377 107.311 185.839 108.414 185.839 109.866C185.839 110.645 186.027 111.344 186.431 111.963C186.834 112.581 187.372 113.065 188.071 113.415C188.797 113.764 189.576 113.925 190.49 113.925ZM191.082 111.425C190.41 111.425 189.899 111.264 189.522 110.914C189.146 110.565 188.958 110.108 188.958 109.57C188.958 108.844 189.227 108.306 189.791 107.903C190.356 107.5 191.189 107.311 192.265 107.311H193.905V109.839C193.663 110.269 193.286 110.645 192.803 110.968C192.319 111.291 191.727 111.425 191.082 111.425ZM203.342 113.683V104.408C203.826 103.359 204.767 102.848 206.165 102.848C206.568 102.848 206.998 102.875 207.402 102.956L207.428 99.9986C207.321 99.9448 207.16 99.9179 206.945 99.891C206.729 99.8641 206.514 99.8372 206.353 99.8372C205.681 99.8372 205.089 99.9986 204.579 100.294C204.068 100.617 203.638 101.047 203.288 101.612L203.207 100.079H200.223V113.683H203.342ZM212.456 113.683V109.274L213.827 107.876L217.78 113.683H221.409L215.844 105.725L220.898 100.052H217.134L213.424 104.273L212.483 105.429V94.3525H209.364V113.683H212.456ZM228.803 113.925C230.04 113.925 231.115 113.683 232.002 113.199C232.889 112.716 233.562 112.097 234.072 111.371L232.405 109.758C231.545 110.86 230.416 111.425 229.018 111.425C228.319 111.425 227.727 111.264 227.216 110.968C226.706 110.672 226.302 110.242 225.98 109.704C225.684 109.167 225.496 108.548 225.442 107.849H234.314V106.532C234.314 105.188 234.099 104.031 233.669 103.01C233.239 101.988 232.594 101.208 231.706 100.644C230.846 100.079 229.744 99.8104 228.48 99.8104C227.297 99.8104 226.249 100.106 225.308 100.671C224.367 101.262 223.641 102.069 223.103 103.117C222.565 104.166 222.296 105.403 222.296 106.801V107.311C222.296 108.548 222.565 109.677 223.076 110.672C223.614 111.667 224.367 112.447 225.361 113.038C226.329 113.63 227.485 113.925 228.803 113.925ZM231.196 105.591H225.496C225.63 104.569 225.953 103.763 226.464 103.198C226.975 102.633 227.62 102.338 228.453 102.338C229.367 102.338 230.066 102.633 230.497 103.198C230.927 103.763 231.169 104.488 231.222 105.376V105.591H231.196ZM240.955 113.925C241.708 113.925 242.38 113.818 242.999 113.63V111.21C242.622 111.291 242.273 111.344 241.923 111.344C241.466 111.344 241.09 111.237 240.875 111.049C240.633 110.834 240.525 110.457 240.525 109.893V102.418H242.918V100.106H240.525V96.7991H237.406V100.106H235.202V102.418H237.406V110.108C237.406 111.452 237.729 112.42 238.374 113.038C238.993 113.63 239.853 113.925 240.955 113.925Z" fill="white"/>
<path d="M100.828 125.27L68 115.887V93.3831L100.828 84V125.27ZM97.6551 107.256L73.5116 114.139L97.6551 121.022V107.256ZM71.1725 97.7386V111.531L95.3161 104.648L71.1725 97.7386ZM97.6551 88.1942L73.5116 95.1038L97.6551 101.987V88.1942Z" fill="white"/>
</svg>
