<svg width="310" height="209" viewBox="0 0 310 209" fill="none" xmlns="http://www.w3.org/2000/svg">
<g clip-path="url(#clip0_741_298)">
<path d="M95.5286 84.633L84.4378 95.7343H95.5286V84.633ZM95.5286 84.633V87.6723M84.4121 83V125.05M95.5286 106.833L84.4378 95.7319M95.5286 106.833V122.748L84.4378 111.647M95.5286 106.833L84.4366 95.7319M95.5286 106.833L95.5274 111.583H100.287V95.7319H84.4366M84.4378 95.7319V111.647M84.4378 95.7319L73.3458 106.833M84.4378 111.647L73.3458 122.748V106.833M73.3458 106.833L73.3446 111.583H68.5859V95.7319H84.4366M73.3458 106.833L84.4366 95.7319M84.4366 95.7343L73.3446 84.633V95.7343H84.4366Z" stroke="white" stroke-miterlimit="10"/>
<path d="M132.783 98.2179C133.475 96.9225 134.444 95.925 135.692 95.223C136.939 94.5233 138.401 94.1729 140.078 94.1729C141.756 94.1729 143.144 94.5175 144.307 95.2078C145.47 95.8981 146.34 96.8127 146.916 97.9516C147.492 99.0916 147.781 100.34 147.781 101.698V103.578H134.732C134.837 105.209 135.387 106.505 136.383 107.467C137.378 108.429 138.714 108.909 140.392 108.909C141.754 108.909 142.799 108.632 143.521 108.079C144.245 107.525 144.773 106.758 145.109 105.774H148.097C147.699 107.3 146.887 108.623 145.66 109.741C144.435 110.86 142.678 111.418 140.394 111.418C138.674 111.418 137.159 111.068 135.849 110.368C134.539 109.668 133.527 108.67 132.814 107.373C132.102 106.077 131.745 104.551 131.745 102.794C131.745 101.038 132.091 99.5133 132.784 98.2167L132.783 98.2179ZM144.637 101.227C144.637 99.8053 144.27 98.6933 143.537 97.8873C142.803 97.0825 141.651 96.6807 140.077 96.6807C138.61 96.6807 137.409 97.072 136.477 97.8558C135.544 98.6396 134.973 99.7644 134.764 101.227H144.637ZM151.701 94.6425V97.2449C151.701 97.3921 151.774 97.4645 151.921 97.4645C152.005 97.4645 152.067 97.4435 152.111 97.4014C152.154 97.3594 152.195 97.2764 152.236 97.1515C152.78 95.4379 154.132 94.5805 156.292 94.5805H157.675V97.4014H155.882C154.477 97.4014 153.429 97.7355 152.737 98.4048C152.044 99.0741 151.698 100.171 151.698 101.698V110.948H148.868V94.6413H151.701V94.6425ZM174.293 107.513C173.549 108.819 172.584 109.797 171.4 110.444C170.216 111.091 168.941 111.416 167.579 111.416C164.896 111.416 163.009 110.351 161.919 108.218C161.835 108.052 161.73 107.968 161.605 107.968C161.48 107.968 161.415 108.031 161.415 108.156V116.903H158.585V94.6436H161.415V97.4341C161.415 97.5591 161.478 97.6222 161.605 97.6222C161.731 97.6222 161.835 97.5381 161.919 97.3722C163.009 95.2393 164.896 94.1741 167.579 94.1741C168.941 94.1741 170.216 94.4988 171.4 95.1459C172.584 95.793 173.548 96.7707 174.293 98.0777C175.037 99.3836 175.41 100.958 175.41 102.796C175.41 104.633 175.037 106.206 174.293 107.513ZM171.023 98.295C169.984 97.218 168.617 96.6796 166.919 96.6796C165.222 96.6796 163.853 97.218 162.816 98.295C161.777 99.372 161.397 100.872 161.397 102.794C161.397 104.717 161.777 106.218 162.816 107.294C163.854 108.371 165.222 108.909 166.919 108.909C168.617 108.909 169.986 108.372 171.023 107.294C172.061 106.217 172.58 104.717 172.58 102.794C172.58 100.872 172.061 99.372 171.023 98.295ZM179.517 88.3711V110.946H176.687V88.3734H179.517V88.3711ZM181.847 98.2167C182.539 96.9214 183.508 95.9238 184.757 95.2218C186.003 94.5221 187.466 94.1717 189.142 94.1717C190.818 94.1717 192.209 94.5163 193.371 95.2066C194.535 95.897 195.405 96.8116 195.981 97.9504C196.558 99.0905 196.845 100.339 196.845 101.696V103.577H183.797C183.902 105.208 184.452 106.504 185.447 107.466C186.442 108.428 187.779 108.908 189.457 108.908C190.819 108.908 191.862 108.631 192.585 108.078C193.309 107.524 193.837 106.756 194.174 105.773H197.162C196.763 107.298 195.95 108.622 194.725 109.74C193.5 110.859 191.743 111.417 189.458 111.417C187.739 111.417 186.224 111.067 184.913 110.367C183.604 109.667 182.591 108.669 181.879 107.372C181.166 106.076 180.81 104.55 180.81 102.793C180.81 101.036 181.156 99.5121 181.848 98.2156H181.847V98.2167ZM193.702 101.226C193.702 99.8041 193.335 98.6921 192.602 97.8862C191.868 97.0814 190.715 96.6796 189.142 96.6796C187.676 96.6796 186.474 97.0709 185.542 97.8546C184.609 98.6384 184.039 99.7633 183.828 101.226H193.702ZM195.586 110.319L202.063 102.323L196.749 95.2685V94.6413H199.862L204.298 100.723L209.077 94.6413H212.252V95.3001L206.152 102.794L211.781 110.319V110.946H208.732L203.92 104.393L198.764 110.946H195.588V110.319H195.586ZM216.361 89.3347V92.8635H213.056V89.3347H216.361ZM216.19 110.948H213.358V94.6425H216.19V110.948ZM217.082 94.6425H220.161V90.2529H222.992V94.6425H226.233L227.028 97.0323H222.992V104.833C222.992 105.898 222.966 106.688 222.913 107.2C222.86 107.713 222.835 108.022 222.835 108.125C222.835 108.273 222.876 108.387 222.96 108.47C223.044 108.554 223.158 108.595 223.307 108.595C223.411 108.595 223.72 108.569 224.234 108.517C224.747 108.464 225.539 108.439 226.609 108.439H227.709V110.946H225.508C223.705 110.946 222.363 110.508 221.483 109.629C220.604 108.75 220.162 107.414 220.162 105.615V97.0312H217.084V94.6413H217.082V94.6425ZM227.085 94.6425H229.97L234.656 108.322C234.72 108.49 234.819 108.711 235.14 108.711C235.462 108.711 235.561 108.489 235.624 108.322L240.309 94.6425H243V95.2697L237.139 112.86C236.635 114.365 235.929 115.415 235.018 116.011C234.105 116.607 233.046 116.905 231.283 116.905H228.265V114.397H230.562C231.295 114.397 231.892 114.423 232.353 114.475C232.814 114.528 233.108 114.553 233.234 114.553C233.59 114.553 233.831 114.397 233.958 114.084L234.839 111.701C234.944 111.451 234.953 111.263 234.871 111.136C234.828 111.051 234.777 110.999 234.714 110.979C234.651 110.958 234.556 110.948 234.431 110.948H232.513L227.088 94.6436H227.085V94.6425ZM129.946 107.54C129.202 108.846 128.238 109.824 127.053 110.471C125.869 111.118 124.594 111.443 123.232 111.443C120.549 111.443 118.662 110.377 117.572 108.245C117.488 108.079 117.383 107.995 117.258 107.995C117.133 107.995 117.069 108.058 117.069 108.183V116.93H114.238V94.6705H117.069V97.461C117.069 97.586 117.132 97.6491 117.258 97.6491C117.384 97.6491 117.488 97.565 117.572 97.3991C118.661 95.2662 120.549 94.2009 123.232 94.2009C124.594 94.2009 125.869 94.5256 127.053 95.1728C128.238 95.8199 129.201 96.7975 129.946 98.1034C130.691 99.4093 131.063 100.984 131.063 102.822C131.063 104.661 130.691 106.234 129.946 107.54ZM126.676 98.3219C125.637 97.2449 124.27 96.7064 122.572 96.7064C120.875 96.7064 119.506 97.2449 118.469 98.3219C117.431 99.3988 117.05 100.899 117.05 102.821C117.05 104.744 117.431 106.245 118.469 107.321C119.507 108.398 120.875 108.936 122.572 108.936C124.27 108.936 125.639 108.399 126.676 107.321C127.714 106.244 128.233 104.744 128.233 102.821C128.233 100.899 127.714 99.3988 126.676 98.3219Z" fill="white"/>
</g>
<defs>
<clipPath id="clip0_741_298">
<rect width="175" height="42.0505" fill="white" transform="translate(68 83)"/>
</clipPath>
</defs>
</svg>
