<svg width="310" height="209" viewBox="0 0 310 209" fill="none" xmlns="http://www.w3.org/2000/svg">
<g clip-path="url(#clip0_741_90)">
<path d="M214.158 111.273C213.978 111.273 213.798 111.393 213.677 111.693C212.475 115.18 210.792 117.285 209.409 117.285C208.627 117.285 208.327 116.383 208.327 115.06C208.327 111.633 210.371 104.359 211.393 100.992C211.513 100.571 211.573 100.21 211.573 99.9098C211.573 98.9479 211.032 98.4669 209.709 98.4669C208.327 98.4669 206.764 99.008 205.321 101.593C204.84 99.3086 203.277 98.3467 201.112 98.3467C198.647 98.3467 196.242 99.9699 194.259 102.555C192.275 105.14 189.93 105.982 188.186 105.561C189.449 102.495 189.93 100.15 189.93 98.4669C189.93 95.7615 188.607 94.1383 186.443 94.1383C183.196 94.1383 181.333 97.2645 181.333 100.511C181.333 103.036 182.475 105.621 185 106.884C182.896 111.633 179.83 115.962 178.627 115.962C177.124 115.962 176.643 108.567 176.764 103.277C176.824 100.271 177.064 100.09 177.064 99.1884C177.064 98.6473 176.703 98.2866 175.321 98.2866C172.134 98.2866 171.112 100.992 170.992 104.118C170.932 105.321 170.752 106.463 170.451 107.605C169.128 112.355 166.363 116.022 164.559 116.022C163.717 116.022 163.477 115.18 163.477 114.098C163.477 110.671 165.401 106.343 165.401 102.675C165.401 99.9699 164.198 98.2866 161.974 98.2866C159.329 98.2866 155.902 101.413 152.595 107.244C153.677 102.796 154.098 98.4669 150.912 98.4669C150.19 98.4669 149.529 98.6473 148.928 99.008C148.507 99.1884 148.267 99.6092 148.267 100.09C148.567 104.84 144.419 117.044 140.511 117.044C139.79 117.044 139.429 116.263 139.429 115C139.429 111.573 141.473 104.299 142.495 100.932C142.615 100.511 142.675 100.15 142.675 99.7896C142.675 98.8878 142.134 98.4068 140.812 98.4068C139.429 98.4068 137.866 98.9479 136.423 101.533C135.882 99.2485 134.379 98.2866 132.214 98.2866C128.667 98.2866 124.76 102.014 123.016 106.884C120.671 113.377 116.042 119.689 109.729 119.689C104.018 119.689 101.012 114.94 101.012 107.425C101.012 96.5431 109.008 87.7054 114.9 87.7054C117.725 87.7054 119.048 89.509 119.048 92.2745C119.048 95.6413 117.184 97.1443 117.184 98.4669C117.184 98.8277 117.485 99.2485 118.146 99.2485C120.731 99.2485 123.737 96.2425 123.737 92.0942C123.737 87.9459 120.491 85 114.599 85C104.8 85 95 94.7996 95 107.425C95 117.465 99.9299 123.477 108.467 123.477C114.299 123.477 119.409 118.968 122.114 113.677C122.415 118.066 124.399 120.351 127.465 120.351C130.17 120.351 132.335 118.727 134.018 115.902C134.679 118.848 136.363 120.291 138.587 120.291C141.112 120.291 143.277 118.667 145.261 115.721C145.261 118.066 145.741 120.291 147.786 120.291C148.747 120.291 149.89 120.05 150.07 119.208C152.234 110.371 157.525 103.096 159.148 103.096C159.629 103.096 159.749 103.577 159.749 104.118C159.749 106.523 158.066 111.453 158.066 114.579C158.066 118.006 159.509 120.23 162.515 120.23C165.822 120.23 169.188 116.202 171.413 110.25C172.134 115.782 173.637 120.23 175.982 120.23C178.868 120.23 184.098 114.098 187.224 107.605C188.427 107.786 190.291 107.725 192.094 106.463C191.313 108.387 190.892 110.491 190.892 112.535C190.892 118.547 193.778 120.23 196.242 120.23C198.948 120.23 201.112 118.607 202.796 115.782C203.337 118.307 204.78 120.17 207.365 120.17C211.393 120.17 214.94 116.022 214.94 112.595C215 111.874 214.579 111.273 214.158 111.273ZM129.99 116.984C128.367 116.984 127.705 115.361 127.705 112.896C127.705 108.627 130.651 101.473 133.717 101.473C135.04 101.473 135.581 103.036 135.581 105.02C135.581 109.349 132.816 116.984 129.99 116.984ZM186.082 104.238C185.12 103.096 184.76 101.473 184.76 100.09C184.76 98.3467 185.421 96.9038 186.142 96.9038C186.864 96.9038 187.164 97.6252 187.164 98.7074C187.104 100.391 186.503 102.976 186.082 104.238ZM198.768 116.984C197.144 116.984 196.483 115.06 196.483 112.896C196.483 108.747 199.429 101.473 202.495 101.473C203.818 101.473 204.299 103.036 204.299 105.02C204.359 109.349 201.653 116.984 198.768 116.984Z" fill="white"/>
</g>
<defs>
<clipPath id="clip0_741_90">
<rect width="120" height="38.477" fill="white" transform="translate(95 85)"/>
</clipPath>
</defs>
</svg>
