<svg width="310" height="209" viewBox="0 0 310 209" fill="none" xmlns="http://www.w3.org/2000/svg">
<g clip-path="url(#clip0_741_145)">
<path fill-rule="evenodd" clip-rule="evenodd" d="M178.176 91H183.078V118.354H178.176V91ZM217.88 102.525V98.2797H212.81V92.7452H207.908V112.922C207.908 114.776 208.374 116.189 209.294 117.122C210.213 118.055 211.646 118.528 213.552 118.528H217.88V114.284H214.713C214.024 114.284 213.53 114.132 213.244 113.833C212.981 113.559 212.81 112.868 212.81 112.072V102.525H217.88ZM144.872 113.03L149.941 98.2791H155.092L147.774 118.355H141.97L134.652 98.2791H139.803L144.872 113.03ZM199.916 108.336C199.916 109.607 199.723 110.713 199.344 111.622C198.967 112.527 198.428 113.221 197.74 113.683C197.052 114.146 196.206 114.381 195.226 114.381C193.824 114.381 192.766 113.92 192.083 113.012C191.391 112.094 191.041 110.703 191.041 108.878V98.2796H186.138V109.42C186.138 111.155 186.354 112.626 186.783 113.792C187.211 114.962 187.8 115.914 188.532 116.621C189.264 117.327 190.118 117.836 191.072 118.136C192.02 118.435 193.041 118.586 194.104 118.586C195.637 118.586 196.906 118.308 197.874 117.76C198.757 117.258 199.497 116.672 200.077 116.014L200.516 118.354H204.819V98.2796H199.916V108.336ZM170.681 99.3383C169.136 98.4817 167.301 98.0477 165.229 98.0477C163.181 98.0477 161.353 98.4817 159.795 99.338C158.236 100.197 157.01 101.409 156.153 102.942C155.297 104.473 154.863 106.288 154.863 108.336C154.863 110.359 155.297 112.161 156.153 113.693C157.01 115.225 158.236 116.437 159.795 117.296C161.353 118.152 163.181 118.586 165.229 118.586C167.301 118.586 169.136 118.152 170.681 117.295C172.228 116.437 173.447 115.225 174.304 113.693C175.16 112.161 175.595 110.358 175.595 108.336C175.595 106.289 175.16 104.474 174.304 102.942C173.446 101.409 172.227 100.196 170.681 99.3383ZM168.091 113.682C167.301 114.197 166.338 114.458 165.229 114.458C164.145 114.458 163.188 114.197 162.385 113.682C161.581 113.167 160.95 112.44 160.51 111.521C160.067 110.601 159.843 109.529 159.843 108.336C159.843 107.118 160.067 106.041 160.51 105.133C160.95 104.226 161.581 103.499 162.386 102.971C163.189 102.443 164.146 102.176 165.229 102.176C166.337 102.176 167.3 102.443 168.09 102.97C168.882 103.499 169.507 104.226 169.948 105.133C170.39 106.043 170.614 107.121 170.614 108.336C170.614 109.527 170.39 110.598 169.948 111.521C169.507 112.44 168.883 113.167 168.091 113.682ZM98.0953 97.751H93V118.355H98.0953V97.751ZM114.074 98.9292C114.074 94.5572 110.514 91.0003 106.137 91.0003H93V95.4004H105.513C107.493 95.4004 109.134 96.9563 109.17 98.8686C109.188 99.8261 108.829 100.73 108.158 101.413C107.487 102.097 106.591 102.473 105.634 102.473H100.76C100.587 102.473 100.446 102.614 100.446 102.787V106.698C100.446 106.764 100.467 106.828 100.505 106.881L108.775 118.355H114.829L106.54 106.85C110.714 106.64 114.074 103.133 114.074 98.9292ZM129.742 99.2215C128.274 98.4425 126.531 98.0477 124.562 98.0477C122.59 98.0477 120.827 98.4819 119.321 99.3389C117.814 100.197 116.627 101.409 115.796 102.943C114.965 104.473 114.544 106.301 114.544 108.375C114.544 110.397 114.972 112.199 115.815 113.731C116.661 115.266 117.88 116.472 119.44 117.315C120.996 118.159 122.863 118.586 124.987 118.586C126.673 118.586 128.187 118.27 129.487 117.647C130.787 117.022 131.848 116.171 132.641 115.118C133.395 114.116 133.904 112.984 134.152 111.752L134.179 111.621H129.303L129.28 111.699C129.012 112.618 128.491 113.344 127.732 113.858C126.917 114.41 125.916 114.69 124.756 114.69C123.773 114.69 122.885 114.48 122.117 114.064C121.354 113.651 120.756 113.061 120.342 112.308C119.927 111.554 119.691 110.645 119.64 109.614V109.453H134.368L134.384 109.363C134.436 109.08 134.469 108.789 134.483 108.496C134.495 108.211 134.502 107.926 134.502 107.638C134.476 105.693 134.041 103.982 133.21 102.553C132.376 101.121 131.209 100.001 129.742 99.2215ZM127.955 103.002C128.793 103.707 129.314 104.709 129.505 105.982H119.81C119.92 105.156 120.195 104.441 120.625 103.854C121.077 103.238 121.656 102.755 122.346 102.417C123.037 102.077 123.796 101.905 124.6 101.905C125.961 101.905 127.089 102.274 127.955 103.002Z" fill="white"/>
</g>
<defs>
<clipPath id="clip0_741_145">
<rect width="125" height="27.5862" fill="white" transform="translate(93 91)"/>
</clipPath>
</defs>
</svg>
