<svg width="310" height="209" viewBox="0 0 310 209" fill="none" xmlns="http://www.w3.org/2000/svg">
<path d="M126.039 111.731H135.011V116.065H120.919V93.2464H126.039V111.731ZM76.3711 87.5986H110.658V121.832H76.3711V87.5986ZM79.4022 118.815H107.619V90.613H79.4022V118.815ZM85.4279 93.2919L91.3918 103.865L84.7559 116.11H89.0299L93.4528 107.752L98.1626 116.11H102.515L89.7806 93.289L85.4279 93.2919ZM173.08 99.1387C171.989 99.1134 170.911 99.395 169.968 99.952C169.14 100.466 168.423 101.143 167.859 101.943H167.791C167.088 100.216 165.415 99.133 163.306 99.133C160.495 99.133 159.055 100.689 158.352 101.741H158.251L158.017 99.5056H153.867V116.059H158.822V106.416C158.805 105.978 158.873 105.542 159.021 105.131C159.322 104.277 160.093 103.268 161.397 103.268C163.006 103.268 163.742 104.69 163.742 106.788V116.065H168.697V106.396C168.694 105.947 168.761 105.501 168.896 105.074C169.048 104.562 169.357 104.113 169.778 103.79C170.199 103.467 170.71 103.289 171.238 103.279C172.88 103.279 173.651 104.667 173.651 107.073V116.076H178.603V106.316C178.603 101.374 176.226 99.1387 173.08 99.1387ZM211.495 92.598H216.585V116.051H212.198L211.964 113.613H211.897C210.859 115.476 208.883 116.423 206.774 116.423C202.891 116.423 199.778 113.073 199.778 107.926C199.744 102.341 203.191 99.1245 207.109 99.1245C209.119 99.1245 210.691 99.8354 211.427 100.987H211.495V92.598ZM211.495 106.504C211.489 106.199 211.466 105.894 211.427 105.591C211.127 104.203 210.022 103.052 208.45 103.052C206.139 103.052 204.935 105.15 204.935 107.758C204.935 110.568 206.307 112.328 208.416 112.328C209.116 112.336 209.796 112.094 210.338 111.645C210.879 111.195 211.246 110.567 211.374 109.871C211.473 109.484 211.518 109.085 211.509 108.685L211.495 106.504ZM233.45 106.265V116.051H229.064L228.762 114.393H228.661C227.587 115.712 225.906 116.423 223.957 116.423C220.63 116.423 218.649 113.986 218.649 111.344C218.649 107.044 222.975 105.782 228.29 105.782V104.789C228.29 103.911 227.82 102.656 225.301 102.656C223.974 102.675 222.664 102.974 221.458 103.535L219.827 100.592C220.968 99.9492 223.218 99.1359 226.209 99.1359C231.684 99.1359 233.45 102.386 233.45 106.279V106.265ZM228.458 108.825C225.647 108.825 223.366 109.018 223.355 111.1C223.355 112.428 224.561 112.786 225.703 112.786C226.287 112.79 226.855 112.61 227.332 112.269C227.808 111.929 228.167 111.446 228.357 110.889C228.426 110.602 228.46 110.306 228.458 110.01V108.825ZM197.81 107.471C197.81 113.426 194.11 116.4 190.409 116.4C188.526 116.4 186.709 115.689 185.553 113.73H185.505L185.309 116.028H181.175V92.6122H186.192V101.465H186.257C187.215 100.043 188.899 99.133 191.146 99.133C195.013 99.133 197.852 102.412 197.822 107.485L197.81 107.471ZM192.687 107.676C192.687 105.116 191.562 103.074 189.22 103.074C187.865 103.074 186.61 104.124 186.279 105.611C186.213 105.922 186.179 106.24 186.181 106.558V108.995C186.178 109.302 186.211 109.609 186.279 109.908C186.424 110.59 186.795 111.203 187.329 111.645C187.863 112.087 188.529 112.333 189.22 112.342C191.379 112.357 192.698 110.664 192.698 107.69L192.687 107.676ZM151.635 106.254V116.039H147.265L146.964 114.381H146.863C145.786 115.701 144.107 116.412 142.159 116.412C138.83 116.429 136.861 114 136.861 111.358C136.861 107.059 141.189 105.796 146.503 105.796V104.789C146.503 103.911 146.033 102.656 143.514 102.656C142.187 102.675 140.879 102.974 139.673 103.535L138.04 100.592C139.184 99.9492 141.433 99.1359 144.425 99.1359C149.889 99.1359 151.654 102.386 151.654 106.279L151.635 106.254ZM146.644 108.813C143.832 108.813 141.552 109.007 141.54 111.088C141.54 112.416 142.747 112.775 143.888 112.775C144.471 112.779 145.041 112.599 145.517 112.259C145.994 111.918 146.352 111.435 146.542 110.878C146.611 110.59 146.645 110.295 146.644 109.999V108.813Z" fill="white"/>
</svg>
