<svg width="310" height="209" viewBox="0 0 310 209" fill="none" xmlns="http://www.w3.org/2000/svg">
<g clip-path="url(#clip0_741_245)">
<path d="M65 90.2217L70.4975 91.8098V113.8L65 115.388V90.2217Z" fill="white"/>
<path d="M73.6758 101.461L79.0511 102.805V114.655L73.6758 115.754V101.461Z" fill="white"/>
<path d="M82.8359 99.1397L87.8448 97.7959V112.334L82.8359 110.868V99.1397Z" fill="white"/>
<path d="M91.1445 89L96.642 90.5882V115.266L91.1445 116.61V89Z" fill="white"/>
<path d="M232.436 105.634H242.136C241.974 104.407 241.449 103.413 240.563 102.651C239.676 101.89 238.6 101.509 237.334 101.509C236.05 101.509 234.946 101.899 234.024 102.678C233.11 103.449 232.581 104.434 232.436 105.634ZM232.436 107.677C232.527 109.003 233.051 110.078 234.01 110.902C234.978 111.727 236.194 112.139 237.66 112.139C238.6 112.139 239.477 111.942 240.291 111.547C241.105 111.153 241.852 110.571 242.53 109.8L244.388 111.279C243.457 112.354 242.435 113.147 241.322 113.657C240.219 114.168 238.971 114.423 237.578 114.423C236.43 114.423 235.358 114.217 234.363 113.805C233.368 113.393 232.513 112.806 231.799 112.045C231.175 111.373 230.695 110.598 230.361 109.72C230.026 108.833 229.859 107.906 229.859 106.938C229.859 104.645 230.551 102.79 231.935 101.375C233.318 99.959 235.127 99.2513 237.361 99.2513C239.64 99.2513 241.481 100.008 242.883 101.522C244.294 103.027 244.999 105.016 244.999 107.489V107.677H232.436ZM226.748 102.974C226.299 102.472 225.785 102.105 225.207 101.872C224.639 101.63 223.987 101.509 223.254 101.509C221.832 101.509 220.662 102.011 219.745 103.014C218.837 104.008 218.383 105.285 218.383 106.844C218.383 108.403 218.833 109.675 219.731 110.66C220.64 111.646 221.814 112.139 223.254 112.139C224.033 112.139 224.721 112.004 225.317 111.735C225.923 111.467 226.436 111.068 226.858 110.539L228.551 112.434C227.78 113.124 226.968 113.63 226.115 113.953C225.272 114.266 224.318 114.423 223.254 114.423C222.162 114.423 221.153 114.244 220.227 113.886C219.3 113.527 218.498 113.008 217.819 112.327C217.094 111.61 216.544 110.79 216.168 109.868C215.801 108.936 215.618 107.928 215.618 106.844C215.618 105.76 215.801 104.752 216.168 103.82C216.544 102.889 217.094 102.064 217.819 101.348C218.507 100.658 219.31 100.138 220.227 99.7888C221.144 99.4304 222.153 99.2513 223.254 99.2513C224.299 99.2513 225.244 99.4036 226.088 99.7082C226.941 100.013 227.716 100.474 228.413 101.092L226.748 102.974ZM201.7 114.06V99.6141H204.275V101.267C204.923 100.613 205.604 100.129 206.316 99.8157C207.037 99.4931 207.809 99.3319 208.631 99.3319C210.32 99.3319 211.654 99.8963 212.631 101.025C213.608 102.154 214.096 103.708 214.096 105.688V114.06H211.494V105.944C211.494 104.43 211.224 103.323 210.686 102.624C210.156 101.917 209.32 101.563 208.179 101.563C206.882 101.563 205.905 101.939 205.247 102.691C204.599 103.435 204.275 104.555 204.275 106.051V114.06H201.7ZM191.792 112.045C193.244 112.045 194.438 111.556 195.373 110.58C196.308 109.603 196.776 108.349 196.776 106.817C196.776 105.294 196.308 104.044 195.373 103.068C194.438 102.082 193.244 101.59 191.792 101.59C190.34 101.59 189.147 102.078 188.211 103.054C187.276 104.031 186.808 105.285 186.808 106.817C186.808 108.358 187.276 109.617 188.211 110.593C189.147 111.561 190.34 112.045 191.792 112.045ZM199.181 114.06H196.643V111.695C196.037 112.546 195.297 113.187 194.424 113.617C193.56 114.038 192.567 114.248 191.445 114.248C190.447 114.248 189.494 114.06 188.586 113.684C187.686 113.299 186.884 112.743 186.18 112.018C185.512 111.319 185.009 110.531 184.671 109.653C184.332 108.775 184.163 107.82 184.163 106.79C184.163 104.559 184.826 102.759 186.154 101.388C187.49 100.017 189.254 99.3319 191.445 99.3319C192.549 99.3319 193.56 99.5603 194.478 100.017C195.395 100.465 196.179 101.119 196.83 101.979V99.6141H199.181V114.06ZM169.106 95.5154V111.588H171.104C174.017 111.588 176.211 110.911 177.685 109.558C179.168 108.206 179.909 106.203 179.909 103.552C179.909 100.891 179.168 98.8884 177.685 97.5446C176.211 96.1918 174.017 95.5154 171.104 95.5154H169.106ZM170.692 93.0293C174.599 93.0293 177.569 93.9252 179.603 95.717C181.645 97.4998 182.666 100.111 182.666 103.552C182.666 106.983 181.645 109.594 179.603 111.386C177.569 113.169 174.599 114.06 170.692 114.06H166.376V93.0293H170.692ZM150.152 105.634H159.695C159.535 104.407 159.019 103.413 158.147 102.651C157.275 101.89 156.216 101.509 154.97 101.509C153.706 101.509 152.621 101.899 151.713 102.678C150.814 103.449 150.294 104.434 150.152 105.634ZM150.152 107.677C150.241 109.003 150.757 110.078 151.7 110.902C152.652 111.727 153.849 112.139 155.29 112.139C156.216 112.139 157.079 111.942 157.88 111.547C158.681 111.153 159.415 110.571 160.082 109.8L161.911 111.279C160.994 112.354 159.989 113.147 158.894 113.657C157.809 114.168 156.581 114.423 155.21 114.423C154.08 114.423 153.026 114.217 152.047 113.805C151.068 113.393 150.227 112.806 149.524 112.045C148.91 111.373 148.439 110.598 148.109 109.72C147.78 108.833 147.616 107.906 147.616 106.938C147.616 104.645 148.296 102.79 149.658 101.375C151.019 99.959 152.799 99.2513 154.997 99.2513C157.239 99.2513 159.05 100.008 160.429 101.522C161.817 103.027 162.511 105.016 162.511 107.489V107.677H150.152ZM140.51 96.0933V99.6141H138.35H135.463L131.581 108.752C131.516 108.905 131.392 109.245 131.208 109.773C131.033 110.293 130.816 110.934 130.559 111.695C130.328 110.889 130.13 110.23 129.964 109.72C129.808 109.209 129.697 108.887 129.633 108.752L125.806 99.6141H122.863L129.066 114.06L126.455 120.054H129.122L137.421 101.672L140.51 101.764V111.064C140.51 112.273 140.822 113.137 141.445 113.657C142.068 114.168 143.114 114.423 144.585 114.423H146.224V111.991H144.692C144.253 111.991 143.931 111.892 143.727 111.695C143.533 111.498 143.436 111.184 143.436 110.754V101.764H146.224V99.6141H143.436V96.0933H140.51ZM107.031 114.06V93.0293H111.106C112.678 93.0293 113.919 93.101 114.828 93.2443C115.747 93.3787 116.508 93.6027 117.11 93.9162C118.142 94.4538 118.923 95.1346 119.454 95.9589C119.995 96.7741 120.266 97.6969 120.266 98.7272C120.266 99.5783 120.016 100.358 119.515 101.065C119.025 101.773 118.326 102.351 117.417 102.799C118.908 103.229 120.036 103.901 120.802 104.815C121.578 105.72 121.966 106.839 121.966 108.174C121.966 109.832 121.221 111.229 119.73 112.367C118.249 113.496 116.401 114.06 114.185 114.06H107.031ZM110.141 102.087H112.714C114.144 102.087 115.247 101.796 116.023 101.213C116.809 100.631 117.202 99.8112 117.202 98.754C117.202 97.6431 116.809 96.8055 116.023 96.2411C115.237 95.6767 114.062 95.3944 112.5 95.3944H110.141V102.087ZM110.141 111.588H113.312C115.099 111.588 116.452 111.288 117.371 110.687C118.3 110.087 118.765 109.2 118.765 108.027C118.765 106.871 118.315 105.997 117.417 105.406C116.518 104.806 115.191 104.506 113.434 104.506H110.141V111.588Z" fill="white"/>
</g>
<defs>
<clipPath id="clip0_741_245">
<rect width="180" height="31.054" fill="white" transform="translate(65 89)"/>
</clipPath>
</defs>
</svg>
