<svg width="310" height="209" viewBox="0 0 310 209" fill="none" xmlns="http://www.w3.org/2000/svg">
<path d="M161.402 93.3652C154.311 93.3652 148.543 99.1337 148.543 106.225C148.543 113.316 154.311 119.084 161.402 119.084C168.493 119.084 174.262 113.316 174.262 106.225C174.262 99.1344 168.492 93.3652 161.402 93.3652ZM161.402 114.262C156.97 114.262 153.365 110.656 153.365 106.225C153.365 101.794 156.97 98.1879 161.402 98.1879C165.834 98.1879 169.439 101.793 169.439 106.225C169.439 110.657 165.835 114.262 161.402 114.262Z" fill="white"/>
<path d="M143.649 93.4151C143.21 93.3659 142.769 93.3398 142.327 93.3369C142.107 93.3369 141.897 93.3434 141.681 93.347C141.465 93.3507 141.251 93.3709 141.036 93.384C140.17 93.452 139.312 93.6003 138.474 93.8261C136.788 94.2813 135.163 95.073 133.759 96.1976C132.333 97.3338 131.191 98.7848 130.422 100.438C130.038 101.261 129.755 102.128 129.579 103.019C129.491 103.459 129.427 103.903 129.386 104.351C129.372 104.573 129.347 104.796 129.344 105.017L129.336 105.349L129.332 105.516V105.653L129.343 109.96L129.354 114.267L129.383 118.573H134.206L134.236 114.267L134.247 109.959L134.258 105.653V105.521L134.262 105.418L134.268 105.212C134.268 105.074 134.288 104.94 134.296 104.804C134.322 104.536 134.362 104.27 134.415 104.006C134.521 103.488 134.686 102.984 134.906 102.503C135.349 101.539 136.012 100.692 136.84 100.029C137.677 99.3543 138.679 98.8507 139.762 98.5511C140.31 98.4013 140.871 98.3021 141.437 98.2558C141.58 98.2478 141.723 98.2341 141.867 98.229C142.011 98.224 142.158 98.2196 142.298 98.2203C142.575 98.2203 142.848 98.2384 143.124 98.2638C144.223 98.3745 145.287 98.7117 146.249 99.2538L148.656 95.0738C147.118 94.18 145.414 93.6163 143.649 93.4151Z" fill="white"/>
<path d="M112.86 93.3008C105.768 93.3008 100 99.0693 100 106.16C100 113.251 105.768 119.02 112.86 119.02H117.089V114.197H112.86C108.428 114.197 104.823 110.592 104.823 106.16C104.823 101.728 108.428 98.1227 112.86 98.1227C117.292 98.1227 120.916 101.728 120.916 106.16V118.003C120.916 122.406 117.331 125.992 112.939 126.038C110.837 126.021 108.828 125.176 107.345 123.686L103.935 127.096C106.299 129.472 109.501 130.824 112.852 130.86V130.862C112.881 130.862 112.91 130.862 112.938 130.862H113.028V130.86C120.019 130.765 125.678 125.067 125.711 118.061L125.715 105.844C125.548 98.8999 119.845 93.3008 112.86 93.3008Z" fill="white"/>
<path d="M189.797 93.3652C182.706 93.3652 176.938 99.1337 176.938 106.225C176.938 113.316 182.706 119.084 189.797 119.084H194.197V114.262H189.797C185.365 114.262 181.759 110.656 181.759 106.225C181.759 101.794 185.365 98.1879 189.797 98.1879C193.993 98.1879 197.447 101.421 197.802 105.528H197.795V130.22H202.617V106.225C202.616 99.1337 196.887 93.3652 189.797 93.3652Z" fill="white"/>
<path d="M209.987 94.0186H209.299L208.362 95.4753L207.393 94.0186H206.699V96.6122H207.474V95.3501L208.162 96.3691H208.537L209.212 95.3183L209.224 96.6122H209.999L209.987 94.0186Z" fill="white"/>
<path d="M203.863 94.638H204.707V96.6122H205.557V94.638H206.407V94.0186H203.863V94.638Z" fill="white"/>
</svg>
