<svg width="310" height="209" viewBox="0 0 310 209" fill="none" xmlns="http://www.w3.org/2000/svg">
<g clip-path="url(#clip0_741_270)">
<path d="M85 113.636C85.7754 113.705 86.7002 113.543 87.4558 113.631C87.5612 113.644 87.6476 113.639 87.7003 113.753L93.6729 127.676L99.7831 113.636H102.418V132.868H100.003V118.828L99.7684 118.996L94.6679 130.629L94.5537 130.679L92.7503 130.629L87.4887 118.828V132.868H85V113.636Z" fill="white"/>
<path d="M110.906 77L111.015 85.5557H120.236L120.346 77H122.907V96.2319H120.346V87.8592L120.236 87.7494H111.015L110.906 87.8592V96.2319H108.344V77H110.906Z" fill="white"/>
<path d="M104.099 77L104.172 79.2669H98.3175V96.2319H95.6831V79.2669H89.9023V77H104.099Z" fill="white"/>
<path d="M131.178 77H128.617V96.2319H131.178V77Z" fill="white"/>
<path d="M139.338 77.0732C142.53 81.7937 145.39 86.7419 148.565 91.4727C148.66 91.6154 148.786 91.9391 148.961 91.9178V77.0732H151.449V96.2319H149.071L139.593 81.4986L139.375 81.3881V96.2319H136.887V77.0732H139.338Z" fill="white"/>
<path d="M196.235 91.9171V77.0732H198.649V96.1587H196.271L186.798 81.3625L186.575 81.3141V96.1587H184.159L184.086 77.0732H186.465L195.909 91.7677L196.235 91.9171Z" fill="white"/>
<path d="M176.256 113.636C176.306 113.807 176.419 113.993 176.518 114.142C179.561 118.681 182.279 123.464 185.373 127.962C185.529 128.19 185.679 128.589 185.988 128.553V113.636H188.33V132.794H186.025L176.536 117.963L176.255 117.951V132.794H173.95L173.84 132.685V113.746L173.95 113.636H176.255H176.256Z" fill="white"/>
<path d="M218.702 82.0458H216.214V80.8392C216.214 80.725 214.768 79.4268 214.565 79.2686L208.342 79.2635C208.254 79.254 208.195 79.2957 208.123 79.3367C208.026 79.3924 206.605 80.8128 206.549 80.9087C206.386 84.5954 206.531 88.3281 206.475 92.0323C206.461 92.1495 206.492 92.2256 206.549 92.3244C206.614 92.4372 208.103 93.9177 208.215 93.9507L214.478 94.0231L216.214 92.3933V88.2615H211.969V86.0678H218.702V93.124L215.65 96.1436L207.172 96.1626L206.952 96.0894L204.061 93.2009C203.902 88.8824 204.035 84.5177 203.994 80.1824L206.952 77.1423L207.244 77.0684L215.796 77.0881L218.702 80.0345V82.0451V82.0458Z" fill="white"/>
<path d="M147.861 122.191H157.191L157.285 122.081C157.287 122.051 157.228 122.026 157.228 122.007V113.745L157.338 113.635H159.753L159.789 132.793H157.301L157.228 124.384H147.861V132.793H145.227V113.745L145.336 113.635H147.751L147.861 113.745V122.191Z" fill="white"/>
<path d="M224.777 118.315H222.362V117.109C222.362 117.015 221.099 115.849 221.007 115.831L215.023 115.844L213.742 117.124L213.729 120.618L215.01 121.897L222.293 121.932L224.982 124.583L225.001 129.983L224.928 130.203L222.311 132.779L214.125 132.799L213.833 132.725L211.239 130.125V128.187H213.617L213.727 128.297V129.467C213.727 129.55 214.844 130.581 214.936 130.599L221.409 130.562L222.507 129.319V125.374L221.226 124.094L214.052 124.096L213.832 124.023L211.256 121.332L211.234 116.52L211.308 116.3L213.924 113.724L221.891 113.704L222.183 113.778L224.777 116.378V118.316V118.315Z" fill="white"/>
<path d="M206.849 113.708V115.829H196.53V122.117H205.934L206.044 122.227V124.238H196.53V130.6H206.739L206.849 130.71V132.793H194.079L193.969 132.684V113.745L206.849 113.708Z" fill="white"/>
<path d="M159.573 77.0732V85.4459L159.683 85.5558H163.671L168.427 77.0732H171.282L165.859 86.616L171.645 96.1228C171.591 96.1968 171.555 96.2173 171.465 96.2312C171.036 96.2942 169.476 96.2942 169.046 96.2356C168.966 96.2246 168.887 96.2276 168.824 96.1646L163.561 87.7494H159.683L159.573 87.8593V96.2319H157.012V77.0732H159.573Z" fill="white"/>
<path d="M106.371 132.794L113.213 113.708L115.778 113.631L122.764 132.795H120.166L118.375 127.931L110.76 127.929L109.079 132.795H106.372L106.371 132.794ZM111.494 125.774H117.714L114.603 116.779L111.494 125.774Z" fill="white"/>
<path d="M140.69 118.68H138.055V117.474C138.055 117.359 136.609 116.061 136.407 115.903L130.477 115.898C130.389 115.888 130.329 115.93 130.258 115.971C130.161 116.027 128.74 117.447 128.684 117.543C128.521 121.23 128.666 124.963 128.61 128.667C128.595 128.784 128.627 128.86 128.684 128.959C128.741 129.058 130.161 130.475 130.258 130.531C132.286 130.69 134.362 130.558 136.407 130.598C136.609 130.44 138.055 129.142 138.055 129.028V127.858L138.165 127.748H140.58L140.69 127.858V129.832L137.711 132.778L129.16 132.797L128.94 132.724L126.05 129.835C125.89 125.517 126.023 121.152 125.982 116.817L129.123 113.667L137.638 113.649L140.69 116.669V118.68V118.68Z" fill="white"/>
<path d="M168.135 113.636H165.574V132.794H168.135V113.636Z" fill="white"/>
<path d="M178.378 77.0732H175.816V96.1587H178.378V77.0732Z" fill="white"/>
</g>
<defs>
<clipPath id="clip0_741_270">
<rect width="140" height="55.8667" fill="white" transform="translate(85 77)"/>
</clipPath>
</defs>
</svg>
